<svg width="57" height="57" viewBox="0 0 57 57" fill="none" xmlns="http://www.w3.org/2000/svg">
<path d="M26.2406 13.0427L26.2101 13.0663L25.3955 12.0694C25.2397 11.8795 25.1236 11.6613 25.0537 11.4274C24.9839 11.1935 24.9617 10.9483 24.9885 10.706C25.0153 10.4637 25.0905 10.2289 25.2098 10.0151C25.3292 9.80125 25.4903 9.61258 25.684 9.45985L25.8759 9.30906C26.0697 9.15644 26.2924 9.04279 26.531 8.9746C26.7697 8.9064 27.0197 8.885 27.2668 8.91162C27.5139 8.93824 27.7533 9.01235 27.9712 9.12973C28.1891 9.2471 28.3812 9.40544 28.5367 9.59569L29.3512 10.5926L26.2406 13.0427ZM25.3282 18.1371L27.712 21.0432L29.2178 19.8556L26.834 16.9482L25.3282 18.1371ZM34.5928 23.2278L57 5.55304V0H46.0187L27.5201 14.5967L34.5928 23.2278ZM52.7394 22.7293C52.4853 22.9337 52.2692 23.0172 52.0837 23.0172C51.4751 23.0172 51.1574 22.1124 50.4204 21.6352C50.1938 21.4904 49.9284 21.4149 49.658 21.4183C49.1866 21.4183 48.6935 21.6165 48.2717 21.8782C47.8498 22.1399 44.6185 26.0517 43.0161 27.3153C41.5078 28.5054 38.1532 29.9896 36.223 31.849L32.7719 27.6418L47.1586 16.294C47.67 15.8916 48.3059 15.6718 48.9617 15.6709C49.3683 15.662 49.7708 15.7517 50.1337 15.9319C50.4965 16.1121 50.8084 16.3773 51.0418 16.704C51.9363 18 53.9809 21.7523 52.7394 22.7318V22.7293ZM38.3019 26.7034C38.1875 26.564 38.0336 26.461 37.8596 26.4073C37.6855 26.3537 37.4992 26.3519 37.3241 26.4021C37.149 26.4524 36.993 26.5524 36.8759 26.6895C36.7587 26.8267 36.6857 26.9948 36.6659 27.1727C36.6462 27.3506 36.6807 27.5302 36.7651 27.6888C36.8494 27.8475 36.9799 27.978 37.1399 28.064C37.2999 28.1499 37.4823 28.1874 37.664 28.1717C37.8457 28.156 38.0186 28.0878 38.1608 27.9758C38.2553 27.9013 38.3339 27.8094 38.3921 27.7051C38.4504 27.6009 38.4871 27.4864 38.5002 27.3683C38.5133 27.2501 38.5025 27.1306 38.4685 27.0165C38.4345 26.9024 38.3778 26.796 38.3019 26.7034ZM48.7596 18.4549C48.6459 18.3149 48.4924 18.2112 48.3186 18.1568C48.1447 18.1024 47.9583 18.0998 47.783 18.1493C47.6076 18.1988 47.4512 18.2982 47.3334 18.4349C47.2157 18.5716 47.1419 18.7395 47.1215 18.9174C47.101 19.0952 47.1348 19.275 47.2186 19.434C47.3023 19.593 47.4323 19.724 47.592 19.8106C47.7517 19.8972 47.934 19.9353 48.1158 19.9203C48.2977 19.9052 48.4708 19.8376 48.6135 19.726C48.7083 19.6519 48.7874 19.5602 48.8461 19.4561C48.9048 19.3521 48.9419 19.2377 48.9555 19.1195C48.9691 19.0013 48.9588 18.8817 48.9252 18.7674C48.8915 18.6532 48.8353 18.5465 48.7596 18.4536V18.4549ZM27.8594 30.3398L32.4758 35.9689L14.178 50.4048C12.6976 51.5724 0.596879 57.6539 0.0136349 56.9423C-0.36757 56.4849 7.35311 46.5191 9.56156 44.7757L27.8594 30.3398ZM19.7092 40.4041C14.7726 44.2972 10.986 47.7155 11.2516 48.0395C11.5171 48.3635 15.7333 45.4686 20.6686 41.5755C25.6039 37.6824 29.3918 34.2641 29.1263 33.9401C28.8607 33.6161 24.6458 36.5135 19.7092 40.4041ZM24.8746 23.5182L37.8355 39.3161L38.9906 38.4052L26.0296 22.6072L24.8746 23.5182ZM22.7868 26.9277L25.1694 29.8339L26.5506 28.7447L24.1668 25.8386L22.7868 26.9277ZM32.6029 23.9755L30.214 21.0694L28.4922 22.4315L30.876 25.3376L32.6029 23.9755Z" fill="white"/>
</svg>
