<svg width="62" height="62" viewBox="0 0 62 62" fill="none" xmlns="http://www.w3.org/2000/svg">
<path d="M30.6609 0.000618381C29.3569 0.0104848 28.0725 0.108491 26.8201 0.304241C19.9144 1.38402 13.5542 3.74525 8.83644 7.15351C4.11848 10.5618 1.03741 14.9664 0.481988 20.3157L0.481394 20.321L0.480801 20.3262C-0.772752 31.3615 6.32533 40.3708 10.2131 44.2099C10.986 44.9735 11.2611 45.9956 11.1823 46.9544C11.1037 47.9131 10.7313 48.8611 10.2035 49.8272C9.14812 51.7594 7.4289 53.7817 5.60019 55.6756C3.52968 57.8203 1.53913 59.5831 0 60.8886C1.06856 60.7289 2.19023 60.3138 3.36308 59.6563C5.53789 58.4374 7.7474 56.4365 9.60815 54.2234C11.4689 52.0102 12.9916 49.5823 13.8809 47.5687C14.3257 46.5618 14.6096 45.656 14.7137 44.9745C14.8176 44.2933 14.6875 43.8708 14.6612 43.8317C12.3856 40.4469 10.0243 36.9874 8.62534 33.4244C7.2264 29.8613 6.81547 26.1147 8.61451 22.4595C12.3563 14.8571 20.1887 11.2664 28.0145 10.6717C35.8191 10.0787 43.734 12.3025 48.2709 16.5534L51.7262 19.5099L62 14.0545C58.9826 10.5928 53.7681 6.77569 47.7228 4.0227C42.7463 1.75658 37.2342 0.210576 31.9711 0.019825C31.5324 0.00403873 31.0955 -0.00253877 30.6609 0.000881592V0.000618381ZM48.2709 16.5534L48.2622 16.5458L48.3082 16.587C48.2959 16.5755 48.283 16.5646 48.2711 16.5533L48.2709 16.5534ZM29.3406 12.9706C28.9744 12.984 28.6085 13.0028 28.2428 13.0307C27.7144 13.0709 27.188 13.1268 26.6643 13.1958L28.0926 19.1258C28.9471 18.9105 29.822 18.7544 30.7104 18.657L29.3407 12.9705L29.3406 12.9706ZM35.8457 13.4518C35.1238 15.1416 34.7583 16.8611 34.8105 18.5876C35.7056 18.6508 36.6035 18.7633 37.4986 18.924C37.3698 17.3204 37.6923 15.7102 38.4424 14.0592C37.6027 13.8198 36.7342 13.6168 35.8457 13.4518ZM20.021 15.0028C19.1142 15.4012 18.2408 15.8632 17.4082 16.3883C20.0118 17.5542 21.8142 19.3829 22.5582 21.597C23.2904 21.0919 24.0632 20.6521 24.8671 20.2732C23.9589 18.1346 22.2594 16.3153 20.021 15.0028ZM33.0959 20.8958C32.9244 20.8956 32.7535 20.8977 32.583 20.902C32.1862 20.912 31.7926 20.9339 31.4034 20.9681C25.1737 21.5174 19.9345 24.9486 18.4265 32.817C18.1004 34.5193 19.0634 38.4503 20.2432 41.7178C21.4229 44.985 22.7108 47.7057 22.7108 47.7057L22.7856 47.8633L22.8068 48.0336C23.0976 50.3621 21.4553 52.6336 19.66 54.9086C18.4679 56.4196 17.2226 57.8164 16.1041 59.0814C19.6645 58.9038 22.9227 57.5047 26.0698 55.0102C26.0514 54.9445 26.0445 54.9168 26.0233 54.8396C25.8948 54.3668 25.7333 53.6955 25.7731 52.9084C25.8392 51.5951 26.6148 50.0198 28.5647 48.7161C24.9187 44.1092 24.2777 38.3555 24.9954 33.5841L25.1268 32.7092L26.1098 32.5711C34.8201 31.349 40.5362 28.7811 46.7808 25.3893C42.6914 22.5109 37.7021 20.9014 33.0956 20.8957L33.0959 20.8958ZM50.927 25.8738C43.7434 29.8884 37.3442 33.1973 27.5537 34.7338C27.0711 39.1287 27.9137 44.1845 31.296 47.994C33.1662 48.0743 34.7472 48.9119 35.7322 50.1231C36.7331 51.3535 37.2077 52.907 37.3388 54.5469C40.7936 57.3655 46.6804 59.6806 51.8421 62C51.3718 56.8111 51.7982 51.9573 49.6854 46.9886L40.3628 43.6603L40.3536 43.6568C38.2303 42.8651 36.8923 41.8424 36.4205 40.4956C35.9488 39.149 36.2909 37.869 36.5968 36.409L36.9232 34.8499L38.5164 35.5702C41.9888 37.141 46.1407 38.2697 50.0206 38.2098L50.9971 38.1946L51.309 39.0152C52.8805 43.1507 53.2245 46.4626 53.6458 49.8292L54.801 50.2387C55.4131 46.3737 55.0847 41.2029 54.2281 36.5014C53.4177 32.0527 52.0444 27.9465 50.927 25.8735V25.8738ZM26.1634 55.3565C26.1619 55.4149 26.1773 55.4163 26.1648 55.3617C26.1645 55.3607 26.1634 55.3574 26.1634 55.3565Z" fill="white"/>
</svg>
