<svg width="59" height="53" viewBox="0 0 59 53" fill="none" xmlns="http://www.w3.org/2000/svg">
<path d="M54.6362 0C48.1748 1.07685 40.6965 5.76816 33.4009 11.9781C26.9499 17.4691 20.6947 24.1809 15.7453 30.8038L18.0533 32.6727C19.6883 30.4807 21.4809 28.2709 23.378 26.0974L22.4089 25.0821L24.0182 23.5457C24.6316 24.223 25.2827 24.8589 25.945 25.5209C24.5214 30.3133 21.0997 35.3772 16.9611 39.43C17.5563 39.896 18.1088 40.5444 18.4219 41.1266C22.8746 36.8194 26.5425 31.4243 28.1041 26.036C33.5235 23.9463 36.3585 19.9867 39.1837 14.8033C46.536 13.7286 51.8599 9.77409 54.8791 6.15282C55.513 7.85734 56.1352 9.56383 56.4823 11.2328C56.9603 13.5297 56.9468 15.6929 55.8659 17.8234C53.9097 21.6783 50.2109 23.5107 47.3309 25.4417C45.8909 26.407 44.5761 27.4186 44.0446 28.9941C43.5131 30.5696 44.0031 32.4034 45.4827 34.4686C47.0602 36.6703 49.3671 38.271 50.9244 39.8528C51.3399 40.2749 51.6959 40.6896 51.9822 41.0968C52.2402 41.0449 52.5063 41.0172 52.7788 41.0172C53.4677 41.0172 54.1182 41.1917 54.6894 41.4977C54.6733 41.4516 54.6579 41.4053 54.6407 41.3597C54.1916 40.1723 53.396 39.1924 52.5097 38.292C50.7369 36.4914 48.547 34.9255 47.2911 33.1726C46.0202 31.3985 45.9074 30.433 46.153 29.7049C46.3986 28.9769 47.2407 28.1804 48.5698 27.2893C51.2278 25.5072 55.515 23.4316 57.8501 18.8298C59.2089 16.1516 59.1999 13.3706 58.661 10.7796C57.7772 6.7355 56.2403 3.43375 54.6364 0H54.6362ZM53.0543 1.62813L54.0019 3.66267C51.5834 7.04352 46.4239 11.4501 39.0308 12.5872L38.5138 11.6481C43.157 8.05709 47.7619 5.2861 51.7314 3.84894L51.1262 2.48063L53.0543 1.62813ZM35.9511 11.8456C36.3858 12.4876 36.8257 13.1923 37.1805 13.8397C34.4865 18.7817 32.1527 22.0545 27.4729 23.9024L26.3678 22.7974C29.1341 19.8562 32.3058 16.7945 35.2654 14.2544L34.577 13.2998L35.9511 11.8456ZM14.1901 32.4073L13.1012 33.7522L15.9831 36.0858L17.0719 34.7407L14.1901 32.4073ZM11.7007 35.4814L0 49.9318C0.00407897 49.9698 0.0222491 50.072 0.102345 50.229C0.274775 50.5669 0.682919 51.0528 1.16313 51.4418C1.64346 51.8307 2.20388 52.129 2.57012 52.2273C2.74045 52.273 2.84403 52.2693 2.8821 52.2653L9.02776 44.6755C8.67981 43.1982 8.98944 41.5802 10.0123 40.3172C11.0349 39.0542 12.5531 38.4143 14.0706 38.4474L14.5827 37.8152L11.7007 35.4814ZM13.9244 40.6562C13.1076 40.6629 12.3019 41.0246 11.7415 41.7168C10.7453 42.9473 10.9313 44.7192 12.1618 45.7154C13.3923 46.7117 15.1641 46.5253 16.1604 45.2948C16.2185 45.2231 16.2721 45.1492 16.3223 45.0739L18.49 45.4731L17.6171 50.2139L19.8049 50.6169L21.0811 43.6879L16.7315 42.8869C16.5967 42.2841 16.263 41.7201 15.7398 41.2964C15.2015 40.8606 14.5596 40.6511 13.9244 40.6562ZM52.7788 43.2418C51.7418 43.2418 50.9248 44.0588 50.9248 45.0959C50.9248 45.7337 51.2346 46.2877 51.714 46.6202C51.654 47.1693 51.548 47.8441 51.3516 48.4805C50.9248 49.7243 50.3386 50.6015 49.1895 50.3575C48.3198 50.024 48.2298 49.1237 48.2785 48.3581L49.8404 48.3318L46.5408 43.2862C46.306 44.1341 45.8623 47.5508 46.094 49.4674C46.1713 50.0328 46.3432 50.6694 46.7559 51.2555C47.1685 51.8417 47.854 52.3393 48.7048 52.5292C49.9938 52.8169 51.214 52.4303 51.9964 51.7072C52.7788 50.9841 53.1982 50.0417 53.4777 49.1368C53.774 48.1771 53.9051 47.223 53.9647 46.5302C54.3751 46.1924 54.633 45.6789 54.633 45.096C54.633 44.059 53.816 43.2419 52.779 43.2419L52.7788 43.2418Z" fill="white"/>
</svg>
