<svg width="57" height="57" viewBox="0 0 57 57" fill="none" xmlns="http://www.w3.org/2000/svg">
<path d="M48.379 0.00012536C48.8732 1.55707 49.6536 2.87019 50.8651 3.92229C52.2138 5.09379 54.1539 5.98271 57 6.41017C55.8842 3.071 53.2295 0.953259 48.3791 0L48.379 0.00012536ZM46.5224 1.65704C46.2423 2.63162 46.0158 3.77553 45.7429 4.76956C46.0146 6.40264 47.129 7.71638 48.4503 8.62248C49.1343 9.09159 49.8614 9.44003 50.4824 9.64799C51.0463 9.83688 51.506 9.8779 51.6811 9.87351C52.9881 9.36126 54.2341 8.8697 55.2084 8.373C52.7251 7.82049 50.7851 6.88128 49.3161 5.60517C48.0309 4.48885 47.1341 3.13873 46.5225 1.65666L46.5224 1.65704ZM41.9028 4.67812C42.0867 7.11821 42.8138 9.12457 44.25 10.5946C45.8662 12.249 48.4912 13.3607 52.7268 13.4964C52.6286 13.1367 52.4918 12.7576 52.3097 12.36C52.2706 12.2745 52.228 12.1882 52.1851 12.102L52.0831 12.1158C51.3186 12.2187 50.5666 12.0644 49.725 11.7822C48.8832 11.5003 47.9803 11.0631 47.1105 10.4668C45.4018 9.29528 43.7838 7.46277 43.4222 5.00988C42.8959 4.85485 42.3855 4.74309 41.9026 4.67812H41.9028ZM39.5801 4.74962C38.8326 4.93713 38.2774 5.29837 37.9334 5.79093C37.3238 6.66328 37.3124 8.03535 38.0906 9.73566C38.8683 11.4357 40.4197 13.3238 42.5384 14.8565C44.6571 16.3893 46.9194 17.26 48.7532 17.4492C50.587 17.6386 51.8569 17.1774 52.4666 16.305C52.5823 16.1394 52.676 15.9558 52.7473 15.7556C48.0516 15.6166 44.7086 14.344 42.5641 12.1489C40.6486 10.1885 39.7827 7.59986 39.5798 4.74987L39.5801 4.74962ZM25.0725 9.81945C24.7397 9.82359 24.3547 9.86047 23.9602 9.93785C23.1714 10.0926 22.3347 10.3894 21.717 10.722C21.0992 11.0544 20.7683 11.4836 20.7787 11.455L20.7777 11.4579L20.7764 11.4612C18.897 16.5542 17.8405 21.6402 17.3648 26.4779C17.4348 26.4476 17.5036 26.4164 17.5737 26.3863C19.5934 25.5156 21.7106 24.7041 23.8865 24.0048C24.5311 19.3706 25.4508 14.851 26.1679 10.1136C26.1618 10.0855 26.1578 10.0421 26.1467 10.0298C26.1284 10.0102 26.055 9.94952 25.8701 9.89684C25.6851 9.84416 25.405 9.81556 25.0722 9.8197L25.0725 9.81945ZM28.6468 11.2782C28.5445 11.2778 28.4415 11.2788 28.3386 11.2794C27.6885 15.4261 26.9179 19.342 26.3294 23.2765C29.9465 22.2841 33.6837 21.6471 37.3757 21.6074C39.0701 21.5891 40.7547 21.6984 42.414 21.9543C42.3846 20.4975 42.3166 18.9754 42.2095 17.3868C41.8816 17.1789 41.5553 16.9591 41.2324 16.7253C39.3242 15.345 37.7965 13.7159 36.7511 12.0234C34.3565 11.7533 31.8542 11.3376 29.131 11.2837C28.9704 11.2806 28.809 11.2787 28.6469 11.2782H28.6468ZM17.5298 13.8352C15.3649 14.8803 13.0585 16.3174 10.5822 18.2722C4.32816 23.2089 1.89446 29.5089 1.74469 35.3661C2.68951 34.6712 3.82567 33.8826 5.14349 33.0327C7.80288 31.3175 11.1579 29.3746 14.9343 27.5819C15.2797 23.1685 16.0847 18.5297 17.5297 13.8352H17.5298ZM44.6156 18.6665C44.6861 19.9571 44.7331 21.2101 44.7519 22.4198C45.299 22.5545 45.8423 22.7058 46.3813 22.8773C46.1803 21.5373 45.9966 20.2839 45.8819 19.1525C45.4618 19.0133 45.0388 18.8502 44.6156 18.6666V18.6665ZM38.0486 23.8889C37.8168 23.8868 37.5846 23.8877 37.3519 23.8906C31.0202 23.975 24.3979 25.9142 18.5162 28.4499C13.8107 30.4785 9.59865 32.8691 6.42877 34.9136C4.84383 35.9359 3.51865 36.8719 2.52709 37.6274C1.56497 38.3605 0.907032 38.9532 0.717242 39.1598C0.170078 39.9337 -0.228611 42.5141 0.147613 44.4155C0.33779 45.3772 0.71182 46.1592 1.01303 46.4675C1.27835 46.7387 1.31385 46.7996 1.69292 46.6306C20.9763 27.3885 40.3511 29.7826 49.0785 29.7509C49.079 29.7295 49.0669 29.7446 49.0793 29.6906C49.1357 29.4458 49.1317 28.928 49.0216 28.3724C48.9113 27.8165 48.7112 27.2143 48.489 26.7296C48.3041 26.3266 48.1013 26.0463 48.007 25.9288C44.9016 24.5334 41.526 23.919 38.0489 23.8887L38.0486 23.8889ZM41.8924 31.9229C37.2161 31.9467 31.5899 32.3356 25.407 34.291C25.4077 39.0175 25.9992 44.0585 27.6254 49.7759C29.1622 49.4363 30.5742 48.9632 31.863 48.3467C31.6658 48.0704 31.476 47.8028 31.31 47.5646C31.1324 47.31 30.9787 47.0855 30.8571 46.9005C30.7355 46.7155 30.6766 46.6747 30.5498 46.3665L32.7075 45.5279C32.6668 45.4288 32.6685 45.4298 32.6933 45.4747C32.7178 45.5196 32.7652 45.6087 32.8159 45.686C32.9176 45.8405 33.0629 46.0532 33.2337 46.298C33.4217 46.5677 33.643 46.879 33.8754 47.204C34.8874 46.5255 35.8069 45.7345 36.6352 44.8256C38.174 43.137 39.4227 40.9963 40.3629 38.3556L38.8433 38.07L39.2848 35.8535L41.0349 36.1826C41.3861 34.8696 41.6719 33.4508 41.8922 31.923L41.8924 31.9229ZM44.2547 31.9367C44.0275 33.6047 43.7235 35.1634 43.3416 36.6162L44.907 36.9105L44.4655 39.1268L42.683 38.7919C41.6446 41.8077 40.2138 44.3047 38.3754 46.3219C37.4213 47.3687 36.3646 48.2736 35.2101 49.0462C35.7502 49.7859 36.2001 50.3986 36.2001 50.3986L34.3113 51.7141C34.3113 51.7141 33.8044 51.0238 33.2084 50.2068C31.6999 50.9587 30.053 51.5276 28.2761 51.9299C28.5475 52.7766 28.8416 53.6379 29.1592 54.515C33.7135 53.3153 38.1052 51.0072 41.8032 47.8357C46.5309 43.7813 47.5664 37.8745 47.381 31.9973C46.4096 31.9797 45.3682 31.9536 44.2549 31.9364L44.2547 31.9367ZM23.1088 35.0843C21.1925 35.8002 19.2303 36.6735 17.2325 37.7388C17.2893 38.5108 17.3582 39.2685 17.4385 40.0098C18.3054 48.0122 20.5594 54.2101 21.9841 56.4234C22.0364 56.451 22.0949 56.4832 22.1838 56.5155C22.4108 56.5976 22.7358 56.6883 23.106 56.7651C23.8465 56.9186 24.7752 57.0185 25.5862 56.9971C26.3975 56.9758 27.0843 56.7872 27.2907 56.6502C27.394 56.5817 27.3798 56.5774 27.383 56.5659C27.3864 56.5546 27.4132 56.4666 27.3153 56.2084L27.3147 56.2068L27.314 56.2049C24.2844 48.1536 23.1938 41.3296 23.1086 35.0843H23.1088ZM15.0046 39.0009C11.6413 41.0152 8.19214 43.5944 4.70813 46.8918C5.53959 48.2389 6.49397 49.3565 7.50515 50.1609L7.52503 50.1766L7.5444 50.1931C10.8208 53.0449 14.6828 54.6609 18.7402 55.2238C18.3945 54.4424 18.0518 53.5604 17.7203 52.5866C16.594 52.5163 15.437 52.4101 14.2498 52.2692L14.5313 50.0281C15.3769 50.1284 16.2014 50.2095 17.0063 50.2734C16.2152 47.4484 15.5406 44.0628 15.1271 40.2457C15.0826 39.8356 15.0421 39.4199 15.0044 39.0006L15.0046 39.0009Z" fill="white"/>
</svg>
