<svg width="57" height="57" viewBox="0 0 57 57" fill="none" xmlns="http://www.w3.org/2000/svg">
<path d="M16.1182 0C5.54433 0.0357771 -3.88631 5.94436 1.62422 21.7608C1.19107 56.8527 39.3543 64.7851 53.582 49.7784C60.0263 42.981 56.3924 33.0363 50.643 29.5793C43.0894 25.0371 33.7593 31.6046 38.8 39.0232C38.8022 39.0262 38.8017 39.0311 38.8039 39.0342C38.9275 39.352 39.1404 39.6746 39.4288 39.9584C40.2069 40.7241 41.26 40.9292 41.7809 40.4169C42.3016 39.9045 42.0931 38.8682 41.315 38.1026C40.6858 37.4834 39.8772 37.231 39.3154 37.428C39.3432 31.4473 44.6761 29.3198 48.7345 31.8453C54.5481 35.4632 54.8612 45.6266 49.4425 48.4892C45.7586 50.4355 42.2092 51.0234 38.8951 50.6582C38.2462 52.1649 36.9654 53.3522 35.5017 53.7553V53.7517C38.0491 50.5427 37.7777 47.9006 36.1454 46.1712C35.8831 45.9912 35.5846 45.8452 35.2554 45.7389C33.8583 48.7462 30.0717 49.6262 27.6883 48.3069C32.3789 47.74 33.9419 45.1351 33.5359 42.3739C32.9272 39.2171 30.3791 36.5775 27.2642 35.2109C24.4541 35.5341 21.6408 35.3896 19.2579 34.8158C19.2325 34.8256 19.2074 34.8356 19.1822 34.8457C19.173 34.8283 19.1645 34.8111 19.1555 34.7935C18.0668 34.5245 17.0732 34.163 16.2129 33.7167C16.9469 33.8288 17.6963 33.8879 18.4623 33.8879C23.3064 33.8879 27.5964 31.5606 30.2447 27.9811C30.2158 27.9654 30.1863 27.9525 30.1574 27.9363C27.7812 26.5807 27.4039 23.3489 28.8849 20.8143C29.9611 18.9729 31.8539 17.7844 33.7215 17.7919C33.7817 17.7923 33.843 17.7931 33.9032 17.7957C34.3977 17.8182 34.8865 17.9278 35.3576 18.1309C43.0218 8.29932 28.7564 -0.0423361 16.1182 0.00023861V0ZM19.3637 17.009C22.9205 17.009 25.8288 19.8708 25.8288 23.3706C25.8288 26.8704 22.9205 29.7322 19.3638 29.7322C15.8071 29.7322 12.8988 26.8704 12.8988 23.3705C12.8988 19.8706 15.8071 17.0088 19.3637 17.0088V17.009ZM19.3637 19.2377C17.0312 19.2377 15.1638 21.0754 15.1638 23.3706C15.1638 25.6659 17.0314 27.5035 19.3638 27.5035C21.6963 27.5035 23.5638 25.6657 23.5638 23.3705C23.5638 21.0751 21.6962 19.2374 19.3637 19.2374V19.2377ZM33.7441 20.0315C32.7637 20.015 31.5932 20.6474 30.8469 21.9245C29.8516 23.6273 30.2426 25.4116 31.2898 26.0091C32.3369 26.6063 34.0894 26.0534 35.0848 24.3507C36.0798 22.6477 35.6849 20.8634 34.6378 20.2662C34.376 20.1167 34.0709 20.0367 33.744 20.0312L33.7441 20.0315Z" fill="white"/>
</svg>
