<svg width="68" height="68" viewBox="0 0 68 68" fill="none" xmlns="http://www.w3.org/2000/svg">
<path d="M43.0503 0C37.2921 1.11357 33.2212 3.3979 30.7852 6.56818L38.9589 11.2815C39.9801 10.7966 41.1005 10.5197 42.2711 10.5026C42.9343 10.493 43.6138 10.5669 44.2987 10.7323C44.8106 7.64199 44.4328 4.05062 43.0504 0H43.0503ZM29.0412 8.67056L16.5007 30.3602L29.9289 38.1124L33.0832 32.6562C31.6514 31.2453 31.053 29.0987 30.9789 26.8622C30.888 24.1271 31.5528 21.0858 32.7904 18.3358C33.7089 16.295 34.9403 14.4039 36.499 12.974L29.0413 8.67042L29.0412 8.67056ZM58.8127 9.09366C54.5743 9.91335 51.2537 11.3691 48.8226 13.3434C50.1679 14.7551 50.8849 16.4778 51.0262 18.2457L59.1774 22.9457C60.7188 19.2466 60.689 14.5918 58.8126 9.09366H58.8127ZM6.74074 10.2552L1.27034 19.7223L15.978 25.8807L24.747 10.71L6.74103 10.2551L6.74074 10.2552ZM42.3022 13.1318C41.3599 13.1469 40.4868 13.4573 39.6255 13.9738C37.9036 15.0067 36.327 17.0468 35.2504 19.439C34.1738 21.8311 33.5951 24.5548 33.6686 26.7725C33.7422 28.9876 34.4362 30.5272 35.5162 31.1525C35.5173 31.1531 35.5199 31.152 35.5209 31.1525C36.6028 31.7743 38.2822 31.6066 40.2387 30.5628C42.1974 29.5179 44.2689 27.6576 45.8038 25.53C47.3387 23.4022 48.32 21.0137 48.3543 19.007C48.3884 16.9999 47.679 15.3707 45.3983 14.0549C44.2578 13.3968 43.2448 13.1171 42.3025 13.1319L42.3022 13.1318ZM50.7825 21.2172C50.3214 23.2793 49.2977 25.2911 47.9887 27.1055C46.2244 29.5516 43.9254 31.6465 41.5093 32.9356C39.5281 33.9926 37.3572 34.549 35.4128 34.0071L32.2629 39.4542L45.6907 47.2016L58.2223 25.5076L50.7828 21.2173L50.7825 21.2172ZM58.6006 30.2388L49.8363 45.4146L62.5296 55.0665L68 45.5947L58.6005 30.2389L58.6006 30.2388ZM18.7086 34.7452C15.4676 36.1627 12.9798 38.0799 11.2374 40.413L23.8543 47.6923C25.0136 45.0157 25.4479 41.9158 25.0799 38.4233L18.7085 34.7455L18.7086 34.7452ZM10.0436 42.8349L0 60.2026V65.5824L12.378 44.1807L10.0438 42.8348L10.0436 42.8349ZM34.4708 43.8386C31.2293 45.2561 28.7427 47.1725 27.0001 49.5064L39.617 56.7861C40.7766 54.108 41.2112 51.0065 40.8427 47.5124L34.4708 43.8389V43.8386ZM14.9918 45.6889L2.01438 68H5.13183L17.3297 47.0396L14.9909 45.689L14.9918 45.6889ZM19.9573 48.5522L8.74199 68H11.8508L22.2869 49.8982L19.9575 48.5522H19.9573ZM25.8466 51.9509L16.7307 67.9999H19.8309L28.1805 53.297L25.8465 51.9509H25.8466ZM30.812 54.8185L23.4492 67.9999H26.5314L33.1461 56.1602L30.8119 54.8184L30.812 54.8185ZM35.7778 57.6817L30.1632 68H33.2364L38.1163 59.0281L35.7775 57.6818L35.7778 57.6817Z" fill="white"/>
</svg>
