<svg width="56" height="62" viewBox="0 0 56 62" fill="none" xmlns="http://www.w3.org/2000/svg">
<path d="M0 0C1.93735 2.829 3.83647 5.4478 5.85205 7.91591C7.12624 7.51667 9.00805 6.6143 10.5596 5.77248C11.1735 5.43934 11.7082 5.13397 12.1865 4.85609C10.8079 3.245 9.43866 1.62628 8.07883 0H0ZM11.224 0C12.7938 1.86457 14.3769 3.71835 15.9732 5.56123C16.3651 6.01334 16.7607 6.46756 17.1585 6.92245C20.0528 5.87704 22.69 5.48416 25.113 5.55224C27.6608 5.62362 29.9726 6.20264 32.1004 7.06351C35.0165 8.24309 37.6119 9.89885 40.1614 11.4593C37.8488 7.7459 34.2134 4.0222 30.3564 1.04858C29.8927 0.691126 29.4228 0.341547 28.9468 0H11.224ZM13.7741 6.70076C13.2158 7.02861 12.5283 7.42493 11.7392 7.85324C10.4156 8.57147 8.91388 9.34257 7.50417 9.87386C7.87692 10.3014 8.25483 10.7246 8.63783 11.1433C11.1632 10.3621 13.0376 9.26087 14.9828 8.09411C14.6934 7.76229 14.4042 7.43048 14.1183 7.10052C14.0012 6.96542 13.8906 6.8356 13.7741 6.70102V6.70076ZM24.403 7.89383C22.711 7.91524 20.8863 8.20766 18.8644 8.85886C20.8767 11.1287 22.9004 13.3522 24.7712 15.3063C27.3222 17.9714 29.6368 20.1544 31.0867 21.2023L34.5722 18.8492L40.8063 14.641C37.5026 12.7356 34.4559 10.5912 31.1711 9.26246C29.0642 8.41032 26.8754 7.8625 24.403 7.89383ZM16.5886 9.92344C14.7766 11.0141 12.891 12.1599 10.4519 13.0472C14.5137 17.1519 19.315 20.9397 25.7647 24.7948H25.765L28.9318 22.6572L28.9818 22.6233C27.314 21.3125 25.2768 19.3157 22.9962 16.9331C20.9578 14.804 18.7572 12.379 16.5884 9.92357L16.5886 9.92344ZM42.5624 16.3463L28.9712 25.5218L44.3363 27.9939L45.5258 23.1092L42.5626 16.3463H42.5624ZM27.2889 27.6623C24.4063 29.8208 22.6738 32.3275 21.499 34.9225C20.1961 37.7995 19.5178 40.7598 18.5232 43.6329C19.1352 43.4268 19.7779 43.3217 20.4252 43.3219C20.6792 43.3219 20.9292 43.3391 21.1754 43.37C22.0409 40.7195 22.6828 38.1831 23.7229 35.8864C24.7777 33.5567 26.198 31.4538 28.7255 29.5714C29.9494 32.0453 32.5172 33.772 35.4885 33.8377C33.9612 35.2254 32.4303 36.6092 30.8958 37.9892C28.2515 40.3661 25.5781 42.7426 23.5179 44.5163C22.9496 45.0066 22.3766 45.4919 21.7992 45.972C21.3902 45.7994 20.9261 45.7014 20.425 45.7014C18.6387 45.7014 17.3173 46.9476 17.3173 48.3837C17.3173 49.8197 18.6387 51.0659 20.425 51.0659C22.2116 51.0659 23.5328 49.8197 23.5328 48.3837C23.5328 48.16 23.501 47.9408 23.4401 47.7302C24.0058 47.2591 24.5673 46.7831 25.1246 46.3025C27.2102 44.5067 29.8903 42.1243 32.5414 39.7419C37.8432 34.9769 43.0258 30.2145 43.0258 30.2145L43.0023 30.1903L39.6783 29.6553C38.7141 30.7627 37.2775 31.4624 35.6632 31.4624C33.4314 31.4624 31.5387 30.1259 30.7664 28.2215L27.2889 27.662V27.6623ZM15.7905 51.1507L12.7936 55.1311L5.03296 56.8433L2.60012 62H12.4601C13.5221 58.8947 15.1949 55.5405 17.7176 52.7931C16.9442 52.3946 16.2808 51.8312 15.7908 51.1507H15.7905ZM23.736 52.4351C22.8118 53.0662 21.6716 53.4384 20.458 53.4451C17.9484 55.7925 16.1774 58.9645 15.039 62H31.4189C31.6946 60.9802 31.5861 60.0808 31.2509 59.1188C30.9228 58.1782 30.341 57.2039 29.6632 56.1946C28.2863 56.1219 26.948 56.0336 25.682 55.9136L24.8956 55.8389L23.7359 52.4348L23.736 52.4351ZM32.6066 56.3293C32.9755 56.9711 33.3052 57.6399 33.5529 58.3509C33.9427 59.4696 34.1058 60.7098 33.8904 62H48.3645V57.7529C46.4611 57.2988 44.1812 56.9773 41.725 56.7845C38.8077 56.5554 35.6662 56.4542 32.6068 56.3293H32.6066ZM50.7968 58.9455V62H56L50.7968 58.9455Z" fill="white"/>
</svg>
