<svg width="57" height="57" viewBox="0 0 57 57" fill="none" xmlns="http://www.w3.org/2000/svg">
<path d="M29.3906 0V2.17364C30.4594 2.17364 30.981 2.15673 31.3373 2.49123C31.7062 2.82573 32.2533 3.985 32.317 6.90492V27.0521H34.6071V6.86265C34.7089 4.79287 34.2254 2.20383 32.9404 0.937079C32.0879 0.149739 31.0574 0.0169061 30.1922 0H29.3906ZM53.8192 0.00241521C52.0761 0.00241521 50.6384 1.36698 50.6384 3.02136C50.6384 3.84009 50.9946 4.58637 51.5545 5.13341C51.5036 5.21431 51.44 5.29764 51.3891 5.38217C50.8929 6.19124 50.6384 7.1887 50.6384 8.27672C50.6384 9.36113 50.8929 10.3634 51.3891 11.1725C51.6944 11.6676 52.127 12.1265 52.6741 12.4042V26.7019C53.0558 26.6174 53.4375 26.5691 53.8192 26.5691C54.2009 26.5691 54.5826 26.6174 54.9643 26.7019V12.4042C55.5114 12.1265 55.944 11.6676 56.2493 11.1725C56.7455 10.3634 57 9.36113 57 8.27672C57 7.1887 56.7455 6.19124 56.2493 5.38217C56.1984 5.29764 56.1348 5.21431 56.0839 5.13341C56.6438 4.58637 57 3.84009 57 3.02136C57 1.36698 55.5623 0.00241521 53.8192 0.00241521ZM45.1674 0.117135L39.0475 3.02136L43.119 4.95348L39.671 6.58853L42.4955 9.26815V23.1879H44.7857V8.36729L43.5388 7.18387L48.2337 4.95348L44.1623 3.02136L46.1853 2.06133L45.1674 0.117135ZM11.9598 0.123173V27.0521H14.25V4.95348L11.9598 0.123173ZM20.1027 3.86666V9.90454H22.1384V29.3948L24.4286 28.308V9.90454H26.4643V3.86666H20.1027ZM1.78125 4.95348V29.3827L2.92634 30.4696L4.07143 29.3827V17.633H6.99777V15.4594H4.07143V13.7688H6.99777V11.5951H4.07143V9.90454H6.99777V7.7309H4.07143V4.95348H1.78125ZM40.7143 25.3615V55.1886C40.7143 57.6038 46.567 57.6038 46.567 55.1886V25.3615H40.7143ZM53.8192 28.7427C52.356 28.7427 50.8929 29.588 50.8929 32.0032V55.1886C50.8929 57.6038 56.7455 57.6038 56.7455 55.1886V32.0032C56.7455 29.588 55.2824 28.7427 53.8192 28.7427ZM10.1786 29.2258V55.1886C10.1786 57.6038 16.0312 57.6038 16.0312 55.1886V29.2258H10.1786ZM30.5357 29.2258V55.1886C30.5357 57.6038 36.3884 57.6038 36.3884 55.1886V29.2258H30.5357ZM26.2098 29.902L20.3571 32.6794V55.1886C20.3571 57.6038 26.2098 57.6038 26.2098 55.1886V29.902ZM0 30.7594V55.1886C0 57.6038 5.85268 57.6038 5.85268 55.1886V30.7594L2.92634 33.5368L0 30.7594Z" fill="white"/>
</svg>
