<svg width="56" height="62" viewBox="0 0 56 62" fill="none" xmlns="http://www.w3.org/2000/svg">
<path d="M20.4722 61.9992C20.6442 61.9958 20.8176 61.9795 20.9919 61.9437C22.386 61.6578 23.2599 60.4066 22.9428 59.149C22.9419 59.1446 22.9394 59.1408 22.9382 59.1363L26.3867 55.2935L26.878 54.7482L26.6228 54.0794L24.5207 48.5495L46.0847 45.2736C44.2189 43.9042 43.0645 41.7898 43.1703 39.4667C43.1924 38.9781 43.2707 38.5015 43.3971 38.0439L23.6656 45.3289L23.6845 45.4609C22.7881 44.3982 21.2792 43.8243 19.6976 44.0807C17.4438 44.4461 15.9664 46.3551 16.3625 48.375C16.7093 50.1428 18.3651 51.377 20.2834 51.4124C20.5573 51.4179 20.833 51.3988 21.1148 51.353C21.5944 51.2753 22.0384 51.1267 22.4374 50.9227L23.6986 54.2415L20.8882 57.3726C20.5526 57.3167 20.198 57.3172 19.8441 57.3897C18.4499 57.676 17.5762 58.927 17.8934 60.1844C18.1707 61.2846 19.2686 62.023 20.4726 61.9995L20.4722 61.9992ZM3.0886 58.0413C3.28163 58.0359 3.47557 58.0116 3.66966 57.9647C4.30303 57.8116 4.81652 57.4584 5.15316 57.0018L11.0012 57.837L11.6013 57.922L12.0832 57.5898L17.9265 53.5425C16.9841 53.2167 16.1304 52.7096 15.4278 52.0601L10.8455 55.2338L5.15331 54.4202C4.55562 53.6056 3.43218 53.1864 2.3284 53.4531C0.947086 53.7871 0.130207 55.0658 0.500252 56.3119C0.801064 57.3237 1.79268 58.0018 2.89526 58.0413C2.95874 58.0436 3.02451 58.0432 3.0886 58.0413ZM9.01232 50.1472L9.29575 50.1301L13.8873 49.8448C13.7552 49.5156 13.65 49.1741 13.5804 48.8182C13.4807 48.3117 13.4531 47.8067 13.4905 47.3143L9.3807 47.5698L5.14364 46.2746C5.12943 46.1939 5.11552 46.1124 5.09164 46.032C4.72129 44.786 3.2984 44.045 1.91724 44.3789C0.535927 44.7126 -0.281101 45.996 0.0890923 47.2418C0.459137 48.4872 1.87764 49.224 3.25895 48.8905C3.51774 48.8278 3.75673 48.7319 3.97198 48.6093L8.74325 50.0663L9.01232 50.1472ZM14.2369 44.8986C14.676 44.1253 15.2914 43.4367 16.0413 42.8836L9.60276 39.6712C9.62044 39.4241 9.59293 39.1698 9.5181 38.9173C9.14776 37.6713 7.72956 36.9305 6.34824 37.2642C4.96693 37.5982 4.15005 38.8813 4.5201 40.1271C4.89014 41.3726 6.30879 42.1096 7.68996 41.7758C7.75163 41.7609 7.80982 41.7434 7.86938 41.7247L14.2371 44.8984L14.2369 44.8986ZM51.1392 44.3278C53.4478 44.3035 55.3978 42.9116 56 40.9834L46.3822 41.5457C47.1214 43.1258 48.8225 44.2522 50.8747 44.3234C50.963 44.3264 51.0516 44.3284 51.1392 44.3275V44.3278ZM46.0563 39.011L55.9858 38.4272C55.3876 36.5988 53.5542 35.2462 51.2998 35.1681C48.6786 35.0775 46.4664 36.7497 46.0563 39.0111V39.011ZM44.7669 35.4665C46.2833 33.6632 48.7223 32.5275 51.4085 32.6205C51.5769 32.6264 51.7436 32.6351 51.9091 32.6505L43.8265 21.1731C42.5746 23.8173 39.894 25.7785 36.6985 26.2898L44.7669 35.4665ZM35.1208 23.8699C38.6844 23.8325 41.6056 21.3084 41.753 18.076C41.7953 17.1457 41.6022 16.2588 41.2239 15.4603L30.3544 22.1699C31.4956 23.1699 33.042 23.8056 34.7758 23.8656C34.8919 23.8697 35.0056 23.871 35.1205 23.8697L35.1208 23.8699ZM28.7956 20.0487L39.5848 13.3856C38.4625 12.4675 36.9836 11.8877 35.3333 11.8306C31.614 11.7018 28.5036 14.2835 28.3515 17.6204C28.3125 18.4789 28.4729 19.2994 28.7956 20.0484V20.0487ZM41.8569 11.8434L42.986 5.92164H27.2084L28.5734 11.5878C30.371 10.0821 32.8029 9.19173 35.4373 9.28293C37.9552 9.37018 40.214 10.3376 41.8569 11.8432V11.8434ZM47.6811 3.3741V0H22.0783V3.3741H47.6811Z" fill="white"/>
</svg>
