<svg width="62" height="49" viewBox="0 0 62 49" fill="none" xmlns="http://www.w3.org/2000/svg">
<path d="M47.4834 5.74353e-06C41.0281 0.000271591 35.1253 4.7705 32.7711 9.04784L31.1257 12.156L29.3679 9.10965C25.1578 1.81348 17.6079 -0.844457 11.2402 0.407283C4.87262 1.65876 -0.275907 6.52309 0.0114738 15.5705C0.236115 22.6454 4.39596 27.7847 10.0156 32.9855C10.6693 32.2815 11.3815 31.6341 12.1443 31.0501L9.8405 27.0497L13.638 24.9592L13.6502 24.9803L13.6837 24.9618L15.9255 28.8641C15.995 28.8352 16.0657 28.8086 16.1358 28.7806C17.4641 28.2322 18.858 27.8586 20.2826 27.6694V23.1559H24.6491V27.6644C26.1105 27.8549 27.5402 28.2384 28.9008 28.8049L31.1057 24.9618L34.0319 26.6078L34.7837 25.5537C34.1953 24.7874 33.7668 23.9107 33.5237 22.9756L29.9119 22.5817L30.3461 18.1724L33.7803 18.51C34.1793 17.4858 34.8065 16.5659 35.6142 15.8203L34.2629 12.8053L38.2763 11.0095L39.6096 13.9863C39.8719 13.9548 40.1356 13.9379 40.3997 13.9357C41.2595 13.9304 42.095 14.0826 42.8765 14.3648L44.7661 11.718L48.345 14.3318L46.389 17.0674C46.9922 17.9369 47.3948 18.9294 47.5678 19.9734L51.0401 20.3542L50.6055 24.7638L46.9098 24.3574C46.496 25.1877 45.928 25.9316 45.2359 26.5493L46.8133 30.075L42.8001 31.8711L41.2152 28.33C40.2936 28.4293 39.3614 28.3464 38.4717 28.0861L36.1859 31.2178L33.6076 29.3333L32.6603 30.9717C33.8555 31.8855 34.9241 32.9539 35.8379 34.1491L39.8387 31.8453L41.9289 35.6428L41.9079 35.6549L41.9262 35.6884L38.024 37.9303C38.053 37.9998 38.0796 38.0705 38.1076 38.1405C38.6561 39.4688 39.0296 40.8628 39.2188 42.2873H42.3051C44.7075 40.1834 47.1503 38.2248 49.4424 36.2941C56.3078 30.4481 62.1609 24.2358 61.9966 15.6926C61.734 7.27105 56.4643 1.85548 50.275 0.307325C49.3587 0.102181 48.4224 -0.000886505 47.4834 5.74353e-06ZM40.4988 17.8575C38.6049 17.8379 37.0083 19.3065 36.8916 21.2179C36.7713 23.191 38.2738 24.8871 40.2469 25.0076C42.2203 25.1281 43.9165 23.6278 44.0368 21.6546C44.1571 19.6816 42.6574 17.9855 40.6841 17.8649C40.6224 17.8609 40.5606 17.8584 40.4988 17.8575ZM22.4823 38.876C20.9504 38.876 19.5633 39.4937 18.554 40.4926C21.2617 42.9032 23.9539 45.4701 26.3584 48.3577C27.4473 47.1449 28.0315 45.987 28.0452 44.4059C27.9594 42.1688 26.7337 40.2459 24.6058 39.295C23.9322 39.0178 23.2107 38.8754 22.4823 38.876Z" fill="white"/>
</svg>
