<svg width="57" height="62" viewBox="0 0 57 62" fill="none" xmlns="http://www.w3.org/2000/svg">
<path d="M39.1461 0L33.5076 9.85934L33.2799 13.6227L39.345 17.1795L42.4552 15.1062L48.0936 5.24713L39.1461 0ZM32.4785 15.9447L28.3599 23.1468L32.3773 25.5026C32.498 25.4945 32.6192 25.4888 32.7419 25.4888C33.1684 25.4888 33.5836 25.5411 33.9826 25.6364L37.7552 19.0392L32.4785 15.9447ZM24.3609 18.6905L23.7471 19.7267L19.2846 27.2579L17.8145 26.2928L16.8137 25.6351L15.5153 27.6623L16.5161 28.3195L18.0561 29.3313L17.3843 30.4653L16.7706 31.501L18.8165 32.7443L19.4302 31.708L25.793 20.9694L26.4068 19.9338L24.3609 18.6905ZM26.2458 24.6995L22.1273 31.9013L29.2397 36.0722L29.5874 35.4641C28.2101 34.4627 27.307 32.8291 27.307 30.9923C27.307 29.2024 28.1641 27.6043 29.4825 26.5973L26.2458 24.6995ZM32.7419 27.9048C31.0438 27.9048 29.693 29.2726 29.693 30.9921C29.693 32.7117 31.0438 34.0795 32.7419 34.0795C34.4399 34.0795 35.7907 32.7117 35.7907 30.9921C35.7907 29.2726 34.4399 27.9048 32.7419 27.9048ZM21.8496 34.5302L11.4997 52.6283C12.2282 53.3957 12.6883 54.4252 12.7223 55.5567H16.8711L27.1263 37.6247L21.8496 34.5302ZM36.3557 35.0919C35.8938 35.5101 35.3617 35.8495 34.7802 36.09L46.63 57.7044H48.7522L36.3557 35.0919ZM8.35116 53.6776C7.239 53.6776 6.36279 54.5646 6.36279 55.6911C6.36279 56.8173 7.239 57.7046 8.35116 57.7046C9.46333 57.7046 10.3395 56.8173 10.3395 55.6911C10.3395 54.5646 9.46333 53.6776 8.35116 53.6776ZM0 57.973V62H4.70555C5.46975 61.4192 6.40786 61.0722 7.45905 60.8236C8.70907 60.5277 10.1168 60.3891 11.5253 60.3891C12.9338 60.3891 14.3382 60.5273 15.5826 60.824C16.6245 61.0719 17.5541 61.417 18.3091 61.9999H23.0651V57.9729H12.0938C11.3246 59.2564 9.93086 60.1206 8.35116 60.1206C6.77147 60.1206 5.37788 59.2564 4.60852 57.9729L0 57.973ZM44.5395 60.1208V62H57V60.1208H44.5395Z" fill="white"/>
</svg>
