<svg width="55" height="55" viewBox="0 0 55 55" fill="none" xmlns="http://www.w3.org/2000/svg">
<path d="M27.4449 0C17.116 0 8.11308 5.69958 3.42242 14.1455H9.78827L11.9073 10.0599H26.5738C26.8339 9.54323 27.2594 9.11161 27.7442 8.80007C28.5419 8.28743 29.5406 8.01738 30.6237 8.01738C31.7066 8.01738 32.7055 8.28743 33.5032 8.80007C34.3009 9.31259 34.9413 10.149 34.9413 11.1581C34.9413 12.1673 34.3008 13.0036 33.5032 13.5162C32.7055 14.0289 31.7066 14.2989 30.6237 14.2989C29.5406 14.2989 28.5419 14.0289 27.7442 13.5162C27.2594 13.2047 26.8337 12.7731 26.5735 12.2562H13.3151L12.3354 14.1454H18.9686V16.3418H2.32811C2.05303 16.9625 1.80139 17.5925 1.57368 18.2308H6.25395V20.4271H0.892536C0.385445 22.3438 0.0805067 24.3432 0 26.4019H13.9093L16.0286 20.2737H21.0877V22.4698H17.6705L16.3106 26.4019H22.3352C22.5954 25.8851 23.021 25.4534 23.5058 25.1419C24.3035 24.6292 25.3024 24.3592 26.3853 24.3592C27.4684 24.3592 28.4671 24.6292 29.2648 25.1419C30.0625 25.6544 30.7033 26.4908 30.7033 27.4999C30.7033 28.5091 30.0625 29.3454 29.2648 29.858C28.4671 30.3707 27.4684 30.6407 26.3853 30.6407C25.3024 30.6407 24.3035 30.3707 23.5058 29.858C23.021 29.5465 22.5954 29.1149 22.3352 28.5979H10.2161L13.3151 34.5728H23.2067V36.7691H11.9071L7.6689 28.5979H0C0.204305 33.8239 1.8595 38.6686 4.57331 42.7437H15.9779C16.238 42.2269 16.664 41.7952 17.1488 41.4837C17.9465 40.971 18.945 40.701 20.0281 40.701C21.111 40.701 22.1098 40.971 22.9076 41.4837C23.7053 41.9962 24.3459 42.8326 24.3459 43.8417C24.3459 44.8509 23.7053 45.6872 22.9076 46.1998C22.1098 46.7124 21.111 46.9825 20.0281 46.9825C18.945 46.9825 17.9465 46.7124 17.1488 46.1998C16.664 45.8883 16.2383 45.4567 15.9782 44.94H14.7397L17.4591 48.8717H26.7411L28.8601 44.7862H33.8023V46.9825H30.2681L29.2881 48.8719H35.9213V51.0681H16.24L12.0016 44.94H6.19813C11.2374 51.0866 18.886 55 27.4451 55C39.1332 55 49.1239 47.702 53.0883 37.3842C52.4704 38.6664 51.725 39.7448 50.8205 40.5439C49.9076 41.3504 48.7876 41.8757 47.5764 41.8757C46.3652 41.8757 45.2451 41.3504 44.3321 40.5439C43.4192 39.7373 42.6682 38.6469 42.0468 37.349C40.804 34.7532 40.0801 31.3034 40.0801 27.4999C40.0801 23.6964 40.804 20.2466 42.0468 17.651C42.6683 16.353 43.4192 15.2626 44.3322 14.456C45.2451 13.6495 46.3652 13.1241 47.5764 13.1241C48.7876 13.1241 49.9076 13.6495 50.8205 14.456C51.725 15.2551 52.4704 16.3335 53.0883 17.6156C49.1239 7.2979 39.1332 0 27.4449 0ZM30.6237 10.2137C29.9511 10.2137 29.3604 10.4007 29.0077 10.6273C28.6551 10.8541 28.5839 11.0392 28.5839 11.1581C28.5839 11.2771 28.6551 11.4622 29.0077 11.689C29.3605 11.9156 29.9511 12.1026 30.6237 12.1026C31.2962 12.1026 31.8869 11.9156 32.2395 11.689C32.5923 11.4622 32.6631 11.2771 32.6631 11.1581C32.6631 11.0392 32.5922 10.8541 32.2395 10.6273C31.8869 10.4007 31.2962 10.2137 30.6237 10.2137ZM50.755 20.3957C49.2869 20.3957 48.2111 21.4703 47.5436 22.7569C46.8763 24.0437 46.5103 25.6905 46.5103 27.4999C46.5103 29.3095 46.8763 30.9561 47.5438 32.2428C48.2111 33.5296 49.2868 34.6043 50.755 34.6043C52.2231 34.6043 53.2991 33.5296 53.9666 32.2428C54.634 30.9561 55 29.3095 55 27.4999C55 25.6904 54.634 24.0437 53.9666 22.7571C53.2991 21.4703 52.2231 20.3957 50.755 20.3957ZM51.339 22.8554C51.5359 23.0381 51.7518 23.3153 51.963 23.7226C52.4266 24.6163 52.7604 25.9822 52.7604 27.4999C52.7604 29.0177 52.4266 30.3835 51.9629 31.2773C51.4994 32.1711 51.0128 32.4451 50.755 32.4451C50.4973 32.4451 50.0107 32.1711 49.5471 31.2773C49.0834 30.3836 48.75 29.0177 48.75 27.4999C48.75 27.4691 48.751 27.4387 48.7512 27.4079C49.0483 27.6326 49.3785 27.7502 49.7138 27.7508C50.2663 27.7508 50.7961 27.4334 51.1868 26.8685C51.5774 26.3036 51.7969 25.5374 51.7969 24.7386C51.7967 24.0538 51.6352 23.3896 51.339 22.8554ZM26.3853 26.5553C25.7128 26.5553 25.1224 26.7425 24.7697 26.9691C24.4169 27.1958 24.3459 27.381 24.3459 27.4999C24.3459 27.6189 24.4169 27.804 24.7697 28.0308C25.1224 28.2574 25.7128 28.4444 26.3853 28.4444C27.058 28.4444 27.6486 28.2574 28.0013 28.0308C28.3539 27.804 28.4251 27.6189 28.4251 27.4999C28.4251 27.381 28.3539 27.1958 28.0013 26.9691C27.6486 26.7425 27.058 26.5553 26.3853 26.5553ZM20.0281 42.8972C19.3554 42.8972 18.765 43.0843 18.4124 43.3109C18.0597 43.5376 17.9886 43.7228 17.9886 43.8417C17.9886 43.9607 18.0597 44.1458 18.4124 44.3726C18.765 44.5992 19.3554 44.7862 20.0281 44.7862C20.7006 44.7862 21.2912 44.5992 21.6439 44.3726C21.9967 44.1458 22.0677 43.9607 22.0677 43.8417C22.0677 43.7228 21.9967 43.5376 21.6439 43.3109C21.2912 43.0843 20.7006 42.8972 20.0281 42.8972Z" fill="white"/>
</svg>
