<svg width="26" height="28" viewBox="0 0 26 28" fill="none" xmlns="http://www.w3.org/2000/svg">
<path d="M18.9371 5.93509e-05L16.4774 5.08439L19.1305 6.10052L21.5902 1.01619L18.937 0L18.9371 5.93509e-05ZM6.38994 0.0203298L3.71781 0.995921L6.0794 6.11688L8.75153 5.14129L6.39001 0.0203298H6.38994ZM8.44811 0.396697L7.90636 0.598335L9.82278 4.75515L10.2624 5.70904L9.1913 6.09762L6.51937 7.07321L5.44738 7.4644L5.00774 6.51074L3.10504 2.38611L2.36565 2.66136C3.51973 4.034 4.03807 5.74827 3.81384 7.45087C3.58962 9.15346 2.63991 10.7147 1.16044 11.8127V13.9743H7.38932V18.6002H1.16038V19.4457H7.38925V24.0782H1.16038V26.3505C2.27946 27.3462 7.46819 27.8438 12.657 27.8438C17.8458 27.8438 23.0346 27.3462 24.1537 26.3505V24.0782H17.9247V19.4465H24.1537V18.6001H17.9227V13.9683H24.1515V11.8073C22.672 10.7093 21.7223 9.14807 21.4981 7.44547C21.2738 5.74287 21.7922 4.02861 22.9462 2.65597L22.1909 2.37443L20.1925 6.50475L19.734 7.45224L18.6693 7.04429L16.0199 6.03313L14.9552 5.62518L15.4136 4.67774L17.3909 0.589859L16.8652 0.396638C16.4482 1.06445 15.8381 1.62091 15.0982 2.00833C14.3582 2.39576 13.5152 2.60005 12.6567 2.60005C11.7981 2.60005 10.9551 2.39576 10.2151 2.00833C9.47515 1.62091 8.86507 1.06445 8.44811 0.396638V0.396697ZM0 14.9996V17.5697H6.23107V14.9996H0ZM19.0814 14.9996V17.5697H25.3125V14.9996H19.0814ZM0 20.4775V23.0477H6.23107V20.4774H0V20.4775ZM19.0814 20.4775V23.0477H25.3125V20.4774H19.0814V20.4775Z" fill="white"/>
</svg>
