<svg width="28" height="26" viewBox="0 0 28 26" fill="none" xmlns="http://www.w3.org/2000/svg">
<path d="M25.0764 0L25.0748 24.3223C25.4795 25.0388 25.8982 25.3143 26.2492 25.3125C26.5976 25.3107 27.0118 25.0319 27.4086 24.3368L26.325 11.914L26.3123 11.7627L26.3991 11.642C27.6443 9.92275 28.0794 6.95239 27.7242 4.44C27.5466 3.18374 27.1748 2.0467 26.6542 1.24291C26.2176 0.568835 25.6968 0.138839 25.0765 0H25.0764ZM3.17728 0.000253227L3.17634 4.24813L2.4377 4.24712V0.000506213H1.59643L1.59655 4.24731H0.85685V0.000506213H7.07757e-09V6.5329C-5.88021e-05 7.25538 0.366381 7.65602 0.943299 7.9037L1.18206 8.00634L1.17677 8.28288C1.05915 13.6346 0.942888 18.9862 0.826152 24.3378C1.22841 25.0461 1.6416 25.3143 1.98563 25.3125C2.32967 25.3107 2.74251 25.0355 3.13965 24.3359C3.0035 18.9857 2.86736 13.6353 2.73145 8.28503L2.72439 8.00659L2.96392 7.90496C3.57107 7.64513 3.96597 7.20419 3.96597 6.53328V0.000253227H3.17734H3.17728ZM13.9268 2.46797C11.4157 2.46797 9.0074 3.54137 7.23176 5.45204C5.45611 7.36272 4.45856 9.95415 4.45856 12.6562C4.45856 15.3583 5.45611 17.9498 7.23176 19.8604C9.0074 21.7711 11.4157 22.8445 13.9268 22.8445C16.438 22.8445 18.8463 21.7711 20.6219 19.8604C22.3976 17.9498 23.3951 15.3583 23.3951 12.6562C23.3951 9.95415 22.3976 7.36272 20.6219 5.45204C18.8463 3.54137 16.438 2.46797 13.9268 2.46797Z" fill="white"/>
</svg>
