<svg width="28" height="28" viewBox="0 0 28 28" fill="none" xmlns="http://www.w3.org/2000/svg">
<path d="M10.4414 0C9.97987 0 9.53723 0.183346 9.21087 0.509703C8.88452 0.83606 8.70117 1.2787 8.70117 1.74023V8.70117H1.74023C1.2787 8.70117 0.83606 8.88452 0.509703 9.21087C0.183346 9.53723 0 9.97987 0 10.4414V17.4023C0 17.8639 0.183346 18.3065 0.509703 18.6329C0.83606 18.9592 1.2787 19.1426 1.74023 19.1426H8.70117V26.1035C8.70117 26.5651 8.88452 27.0077 9.21087 27.334C9.53723 27.6604 9.97987 27.8438 10.4414 27.8438H17.4023C17.8639 27.8438 18.3065 27.6604 18.6329 27.334C18.9592 27.0077 19.1426 26.5651 19.1426 26.1035V19.1426H26.1035C26.5651 19.1426 27.0077 18.9592 27.334 18.6329C27.6604 18.3065 27.8438 17.8639 27.8438 17.4023V10.4414C27.8438 9.97987 27.6604 9.53723 27.334 9.21087C27.0077 8.88452 26.5651 8.70117 26.1035 8.70117H19.1426V1.74023C19.1426 1.2787 18.9592 0.83606 18.6329 0.509703C18.3065 0.183346 17.8639 0 17.4023 0H10.4414Z" fill="white"/>
</svg>
