s<svg width="17" height="17" viewBox="0 0 17 17" fill="none" xmlns="http://www.w3.org/2000/svg">
<path d="M9.32994 0.000467675C8.83254 0.00671668 8.30866 0.0943131 7.75912 0.279614C6.58463 2.31275 5.09932 4.72391 2.86414 6.84107C2.0391 7.62256 1.3367 8.49301 0.828588 9.35218C0.878971 9.5842 1.02264 9.78042 1.24598 9.992C1.67396 10.3975 2.44753 10.7867 3.37159 11.2142C5.17481 12.0485 7.54875 13.0665 9.07074 15.2014L16.6875 15.2025C15.9011 12.5988 12.7832 11.4855 10.4943 12.117C10.4914 12.1181 10.4886 12.1194 10.4857 12.1205C10.423 12.1438 10.3584 12.1623 10.2923 12.1779C10.2914 12.1781 10.2908 12.1789 10.2898 12.179C9.94485 12.2601 9.55705 12.2408 9.15582 12.1641C8.19061 11.9796 7.10158 11.4402 6.76743 10.4847C5.65329 7.29872 7.41571 3.87761 9.81048 2.2772C10.7085 1.677 11.7207 1.32706 12.71 1.37771C12.7156 1.37801 12.7213 1.37856 12.727 1.37881C11.7851 0.542918 10.6506 -0.0161841 9.32986 0.000357389L9.32994 0.000467675ZM12.5129 2.05896C11.7649 2.05933 10.9783 2.33796 10.2303 2.83781C8.10273 4.25972 6.46712 7.43355 7.45858 10.2688C7.6582 10.8397 8.51957 11.3408 9.29953 11.49C9.68947 11.5645 10.0478 11.5458 10.223 11.4796C10.3106 11.4465 10.3465 11.4119 10.3629 11.3854C10.3793 11.3589 10.3944 11.3243 10.3726 11.2246C10.0191 9.60104 10.2658 8.1144 11.25 7.01678C12.1683 5.99257 13.6933 5.34565 15.8212 5.15362C15.2367 3.42062 14.3623 2.53543 13.4339 2.21181C13.1845 2.12476 12.9265 2.07558 12.6626 2.06242C12.613 2.05996 12.5628 2.05896 12.5129 2.05896H12.5129ZM0.424592 10.1207C0.214146 10.5822 0.068877 11.0307 0 11.4509C0.27948 12.4713 2.02068 13.4884 3.5468 13.7058C3.61311 13.4862 3.77387 13.284 3.94706 13.182C5.93316 14.2422 7.30252 15.4134 7.91848 16.8946H16.8579C16.885 16.5413 16.875 16.2068 16.8335 15.8895L8.87844 15.8884H8.6789L8.57182 15.7287C7.19331 13.6858 4.91461 12.6931 3.05154 11.8311C2.12 11.4002 1.29282 11.0101 0.730003 10.4768C0.614053 10.3669 0.511263 10.248 0.424592 10.1207Z" fill="white"/>
</svg>
