<svg width="56" height="56" viewBox="0 0 56 56" fill="none" xmlns="http://www.w3.org/2000/svg">
<path d="M6.69909e-06 0V12.2768L16.6264 27.4781V0H5.28902L5.28928 11.7025H2.88139V0H6.69909e-06ZM19.0341 0V28.8364H37.2645V0H19.0341ZM39.6722 0V27.2051L55.9999 12.2768V0H53.4465L53.4468 11.7025H51.0388L51.0385 0H39.6722ZM50.3855 20.5234L48.0071 22.698L48.0075 32.2017H45.5996L45.5994 24.8991L38.885 31.038H37.1287V45.4649L50.3855 33.344V20.5234ZM5.6146 20.5236V33.3442L19.0665 45.6431V31.0379H17.1146L10.463 24.9565L10.4632 32.2015H8.05561L8.05522 22.755L5.6146 20.5236ZM21.6066 24.6613H34.6462V26.863H21.6066V24.6613ZM21.4743 31.0378V46.5963H34.7211V31.0379H21.4743V31.0378ZM10.7097 41.1164V55.9999H21.0203V48.7979H19.1114L15.4936 45.4901L15.4938 53.1992H13.0858L13.0855 43.2885L10.7097 41.1167V41.1164ZM45.2831 41.1229L43.0735 43.1432V53.1992H40.6657L40.6654 45.3447L36.8885 48.798H35.1749V56H45.2831V41.1232V41.1229ZM24.1396 42.2444H32.5082V44.4457H24.1396V42.2444ZM23.4284 48.7979V55.9999H32.7672V48.7979H23.4284Z" fill="white"/>
</svg>
