<svg width="48" height="53" viewBox="0 0 48 53" fill="none" xmlns="http://www.w3.org/2000/svg">
<path d="M7.875 0.000109315C6.97572 0.000109315 6.07031 0.421203 5.13712 1.36041C4.20383 2.29961 3.29525 3.74205 2.5258 5.57134C0.987328 9.22994 0 14.4117 0 20.1353C0 25.8589 0.987328 31.0406 2.52591 34.6992C3.29536 36.5286 4.20405 37.9711 5.13734 38.9102C6.07064 39.8494 6.97594 40.2741 7.875 40.2741V40.2638L18.1974 40.2295C16.1422 35.0456 15.3465 29.3514 15.6203 23.4678C15.9593 16.1804 13.5091 9.87733 11.2486 7.71455C10.6057 7.09898 10.0507 6.9008 9.5363 6.91458C9.02191 6.92836 8.45709 7.17052 7.83409 7.7863C6.58831 9.01753 5.3235 11.7299 4.73747 15.6854C4.29122 18.6975 4.33059 22.0955 4.79544 24.9685C5.26072 27.8414 6.23973 30.1747 7.18134 31.0114C7.5133 31.3064 7.73587 31.3581 7.94008 31.3428C8.14461 31.3275 8.41586 31.2185 8.75383 30.8678C9.40319 30.1937 10.1304 28.6508 10.4765 26.3834C10.4728 26.387 10.4697 26.3904 10.4661 26.3938C10.6145 25.7264 10.7019 24.9461 10.7019 24.1072C10.7019 21.6747 9.982 19.7014 9.09562 19.7014C8.25158 19.7014 7.56361 21.4912 7.49941 23.7619C7.33261 22.9936 7.23625 22.1231 7.23625 21.1984C7.23625 18.1051 8.29041 15.5962 9.59109 15.5962C9.92797 15.5962 10.2482 15.7652 10.538 16.0681C10.5406 16.07 10.5425 16.0727 10.545 16.0746C11.6643 17.036 12.1358 18.6104 12.4453 20.4157C12.7647 22.279 12.8074 24.4147 12.5409 26.3832C12.177 29.0728 11.3997 31.0652 10.2235 32.2862C9.63539 32.8965 8.90334 33.3187 8.09069 33.3799C7.27803 33.4412 6.46833 33.1109 5.82444 32.5391C4.15406 31.0548 3.28147 28.3985 2.77922 25.2965C2.27697 22.1944 2.23672 18.6348 2.71764 15.3878C3.34403 11.1615 4.61803 8.08675 6.39548 6.33008C7.28427 5.4518 8.35111 4.90077 9.48533 4.87069C10.6195 4.8405 11.7284 5.3457 12.6605 6.23788C15.7295 9.17459 18.0227 15.794 17.6611 23.5635C17.3337 30.5994 18.5799 37.231 21.7353 42.9845C22.7851 44.8304 24.0499 46.5713 25.5258 48.1729C25.5362 48.1842 25.5463 48.1959 25.5567 48.2071L29.1693 52.2403L30.6904 50.8732L29.7574 49.8341L31.2443 48.5147L29.6241 46.693C30.2818 46.472 30.9751 46.2979 31.6957 46.1494C31.8154 46.2768 31.9608 46.4392 32.1397 46.6348C32.5269 47.0576 33.0213 47.6032 33.5036 48.142C34.4683 49.2197 35.3936 50.268 35.3936 50.268L36.9249 48.9145C36.9249 48.9145 35.9945 47.8656 35.0246 46.7817C34.7443 46.4685 34.4664 46.1612 34.201 45.8657C34.2158 45.8741 34.2234 45.8778 34.2385 45.8863C34.8911 46.2511 35.731 46.723 36.5591 47.1919C38.2156 48.1296 39.8267 49.048 39.8267 49.048L40.794 47.3494C42.217 48.1558 43.6618 48.9763 43.6618 48.9763L44.6768 47.1989C44.6768 47.1989 43.0622 46.2791 41.4025 45.3395C40.8716 45.0391 40.4017 44.7741 39.9121 44.4987C40.4049 44.3318 40.8874 44.1421 41.3581 43.9212L47.0693 44.1227L47.1378 42.0785L43.9449 41.9659C38.5072 40.8207 34.4255 33.8338 34.2444 26.0449C34.508 24.1771 34.6513 22.1931 34.6513 20.1354C34.6513 14.5371 33.5915 9.47855 31.9306 5.85845C30.2743 2.24798 28.0808 0.219734 25.9833 0.0683594L7.87489 0.0103905V0L7.875 0.000109315Z" fill="white"/>
</svg>
