<svg width="60" height="59" viewBox="0 0 60 59" fill="none" xmlns="http://www.w3.org/2000/svg">
<path d="M27.5821 0.000128431C27.5211 0.000128431 27.4804 0.0412493 27.4192 0.0412493L27.1339 0.185557L9.57132 7.5599C8.49144 8.05437 7.51363 8.65152 6.57598 9.3313C6.57598 9.3313 6.53531 9.3313 6.53531 9.39298C6.08714 9.7844 5.65956 10.2376 5.27228 10.732C4.82411 11.3706 4.43695 12.1121 4.13139 12.8947C3.94798 13.6361 3.84617 14.3367 3.80537 15.0783V15.3254C3.80537 15.9229 3.88672 16.4584 4.09059 17.0146C4.13126 16.417 4.29421 15.7784 4.53876 15.2223C4.82398 14.5426 5.31282 13.9453 5.94453 13.4922C6.33169 13.245 6.77999 12.9978 7.22828 12.8535C7.81906 12.7096 8.38951 12.6066 9.04142 12.5035C10.0195 12.4007 10.9976 12.3593 11.8736 12.3181C13.0348 12.3181 14.1754 12.3592 15.3982 12.4003C16.8649 12.462 18.2707 12.6475 19.5951 12.8947C20.6343 13.0595 21.6123 13.245 22.6718 13.4508L22.1827 12.7094L21.6529 11.5766C21.5103 11.1234 21.4084 10.629 21.4084 10.1759V10.0315C21.4491 9.53716 21.5513 9.04281 21.7957 8.54859L22.8756 7.06542L27.7653 0.638783C27.8669 0.597663 27.8669 0.494604 27.8669 0.391674C27.8669 0.288487 27.8669 0.185557 27.7653 0.103059C27.7246 0.0413776 27.6225 0 27.5818 0L27.5821 0.000128431ZM1.42369 15.2029C1.17914 15.6355 0.937774 16.0845 0.734026 16.5171C0.448805 17.2586 0.239846 18.0026 0.0972348 18.8057C0.0565615 19.1972 0 19.6482 0 20.0396C0 20.3897 0.0620269 20.6783 0.0620269 20.9872C0.204765 21.873 0.344706 22.72 0.548454 23.5439C1.07822 25.3772 1.91635 27.0668 3.07783 28.488C3.72962 29.2914 4.40098 30.0309 5.0937 30.6696C5.7254 31.2257 6.41177 31.8064 7.14516 32.4038C7.98061 33.0425 8.85598 33.5984 9.63004 34.0309C10.8119 34.7313 12.0421 35.3684 13.2646 36.0069C17.7062 38.3963 22.4462 40.0615 27.2544 40.906C30.4329 41.3591 33.6157 41.7531 36.8757 42.0415C36.8757 42.7007 36.9154 43.3785 37.0172 44.0172C37.1191 44.8203 37.3039 45.6627 37.6095 46.4042C37.8947 47.2279 38.2437 48.0318 38.7326 48.7733C39.2623 49.5561 39.8879 50.2633 40.5807 50.9636C41.355 51.6434 42.1939 52.236 43.1718 52.6894C43.9052 53.0189 44.6974 53.221 45.5328 53.3239C45.7773 53.3239 46.0224 53.3687 46.2668 53.3687C46.4095 53.3687 46.5484 53.3239 46.6911 53.3239L59.8143 52.3765H59.8585C59.8992 52.3765 60 52.3367 60 52.2335C60 52.1307 59.8949 52.0896 59.7521 52.0279C59.2633 51.8834 58.7372 51.6974 58.1871 51.4914C57.6164 51.2854 56.9625 51.0455 56.392 50.9013C55.5567 50.6129 54.6799 50.2999 53.7835 50.1145C52.9073 49.9085 52.0324 49.7251 51.0952 49.5602C50.5042 49.5191 49.8731 49.4183 49.2822 49.2741C49.2009 49.233 49.0966 49.1231 49.0966 48.9789C49.0966 48.9789 49.1002 48.922 49.1411 48.8807C49.1411 48.819 49.2028 48.7733 49.2028 48.7733C49.2028 48.7322 49.238 48.7368 49.238 48.675C49.3807 48.5722 49.5907 48.4713 49.7333 48.389C50.0797 48.183 50.4244 48.0327 50.7504 47.8886C51.5857 47.4766 52.4625 47.1471 53.3589 46.735C53.7461 46.5908 54.1302 46.4502 54.5174 46.3061C55.0677 46.1001 55.657 45.9542 56.472 45.707C56.6349 45.6659 56.7766 45.6051 56.8787 45.564C57.2046 45.4609 57.558 45.354 57.9044 45.2509C57.2117 44.1799 56.3365 43.1327 55.4195 42.2469L53.5979 40.4768C52.9662 39.9207 52.3792 39.4253 51.8291 38.9926C50.9123 38.3337 50.0179 37.6957 49.2029 37.1602C47.5729 36.0684 45.918 35.117 44.2067 34.2724C43.3306 33.8396 42.4357 33.4525 41.1114 32.9581C39.8483 32.505 38.6297 32.0504 38.8742 32.1534C37.7536 31.8032 36.5727 31.47 35.4521 31.1611L31.7995 21.2374C30.8624 21.7319 29.8848 22.223 29.0494 22.6144C28.316 22.9646 27.5864 23.1552 26.8121 23.2582C25.8748 23.4642 24.9551 23.4593 24.0178 23.3563L12.1417 22.3728L15.3605 26.2618C15.4625 26.4267 15.6071 26.6103 15.7495 26.8163C15.8514 26.9194 15.8468 27.0001 15.8468 27.1649C15.8062 27.3091 15.7057 27.4155 15.5021 27.4155C14.9314 27.4566 14.342 27.4145 13.7511 27.3525C12.9158 27.2497 12.0759 27.1081 11.3018 26.861C10.6091 26.7168 9.98225 26.47 9.39147 26.1816C8.61715 25.8726 7.81754 25.4816 7.14528 25.0283C6.51358 24.6372 5.86789 24.2 5.29719 23.7053C4.64515 23.2109 4.06987 22.6575 3.51977 22.0602C3.17341 21.6688 2.83213 21.1779 2.54691 20.6835C2.20055 20.0038 1.9105 19.297 1.70675 18.5556C1.56414 17.7524 1.42306 16.9679 1.36205 16.3294C1.42306 15.9792 1.42369 15.6355 1.42369 15.2029ZM0.0796944 28.3821L0.222051 29.5767C0.813085 33.4285 2.23919 37.1364 4.33794 40.4525C5.76404 42.739 7.57744 44.6546 9.67605 46.1379L10.7966 46.941L13.0374 48.3622C17.9477 51.2872 23.3675 53.2235 29.0519 54.068L33.0049 54.3976L37.0388 54.6448L41.297 54.6037C40.1763 53.9034 39.1575 53.0793 38.261 52.1317L37.385 51.1018C36.6516 50.1543 36.0606 49.1655 35.6735 48.0737C35.4901 47.3734 35.3271 46.735 35.1845 46.0552L34.9398 44.4693L30.7021 44.016L27.3809 43.5836L25.14 43.2332C23.8563 42.9862 22.5933 42.636 21.3096 42.2448L17.2141 40.7618L14.0357 39.3198L10.7963 37.6924L7.76047 36.0033L5.37663 34.3762L2.34113 31.5132L0.0796944 28.3818V28.3821ZM50.0603 40.2445C50.9771 40.2445 51.7318 41.0316 51.7318 41.979C51.7318 42.9473 50.9771 43.7134 50.0603 43.7134C49.1435 43.7134 48.3892 42.9473 48.3892 41.9791C48.3892 41.0318 49.1435 40.2448 50.0603 40.2448V40.2445ZM7.85287 51.2551C9.66614 52.491 11.3775 53.8299 12.9464 55.2718C14.3115 56.4459 15.5339 57.7435 16.7564 59C17.1027 59 17.3881 58.8969 17.6324 58.8146C18.7123 58.3202 19.6902 57.7846 20.6683 57.1872C21.6055 56.6518 22.4205 56.0134 23.1132 55.2719C22.5836 55.0659 22.0334 54.8805 21.5036 54.7157C20.1792 54.3861 18.9163 53.9329 17.6734 53.3768C16.7565 52.9853 15.8803 52.5531 15.0449 52.0586C14.943 52.0997 14.8005 52.0997 14.6986 52.0997C14.1078 52.0997 13.5169 52.0583 12.9464 51.9553C11.235 51.8111 9.52353 51.564 7.85287 51.2549V51.2551Z" fill="white"/>
</svg>
