<svg width="567" height="575" viewBox="0 0 567 575" fill="none" xmlns="http://www.w3.org/2000/svg">
<path d="M91 284.725C173.95 367.675 256.692 450.617 339.225 533.55C316.525 556.25 291.867 569.558 265.25 573.475C238.633 577.392 212.95 573.675 188.2 562.325C163.45 550.975 139.1 533.333 115.15 509.4C91.2 485.467 73.5583 461.117 62.225 436.35C50.8917 411.583 47.175 385.792 51.075 358.975C54.975 332.158 68.2833 307.4 91 284.7V284.725ZM251.925 95.95L129.975 125.65L40.85 213.55L13.625 285.35L0 272.35L15.475 191.275L115.75 90.375L227.775 39L227.15 37.75L263.05 1.85L373.225 0L430.175 56.95L418.425 69.325L370.75 116.975L320.6 66.825H300.8L271.7 95.925H251.9L251.925 95.95ZM500.775 264.925L482.825 282.875C502.225 334.875 491.292 381.508 450.025 422.775C389.358 362.525 306.417 279.783 201.2 174.55C242.467 133.7 289.3 122.767 341.7 141.75L359.65 123.8L500.775 264.925ZM86.65 253.775L170.225 170.2L454.35 454.325L370.775 537.9L86.65 253.775ZM565.75 147.95L566.975 183.85L501.975 249.475L483.4 230.275L393.65 141.15L375.075 122.575L440.7 56.95L476.6 58.2L565.75 147.95Z" fill="white"/>
</svg>
