<svg width="56" height="54" viewBox="0 0 56 54" fill="none" xmlns="http://www.w3.org/2000/svg">
<path d="M32.9048 0C32.9048 0 30.7856 1.99012 29.6633 1.57421C29.2579 1.42409 28.9219 1.00422 28.6488 0.486738L26.5909 2.65721L36.8634 13.4915L44.1818 5.7731L42.3655 3.85753C41.9611 4.0293 41.5676 4.12651 41.2212 4.09347C39.9939 3.97652 38.3638 1.61943 38.3638 1.61943C38.3638 1.61943 36.448 3.53846 35.3356 3.28382C34.0489 2.98921 32.9048 0 32.9048 0ZM25.0454 4.28714L17.7275 12.0053L28 22.8393L35.3179 15.1215L25.0454 4.28714ZM45.7275 7.40316L38.4091 15.1215L48.6819 25.9556L56 18.2374L45.7275 7.40316ZM16.1817 13.6355L10.7405 19.3742L22.9448 28.1707L26.4543 24.4695L16.1817 13.6355ZM36.8634 16.7516L29.5456 24.4695L39.8181 35.3035L47.1361 27.5856L36.8634 16.7516ZM6.44148 19.0677L2.84133 27.29L13.2535 27.3041L19.0981 39.326L27.8449 37.0949L33.916 47.248L37.452 41.4195L6.44148 19.0677ZM28 26.0997L24.7811 29.4944L36.9854 38.291L38.2725 36.9337L28 26.0997ZM1.05103 29.593L0 30.7015L22.091 54L30.2338 45.412L26.8332 39.7249L17.9383 41.9936L11.9168 29.6078L1.1324 29.593H1.05103Z" fill="white"/>
</svg>
