<svg width="56" height="48" viewBox="0 0 56 48" fill="none" xmlns="http://www.w3.org/2000/svg">
<path d="M35.1763 0L33.7658 1.20377L37.787 4.65491L39.1975 3.4469L35.1763 0ZM39.9152 0.290601C39.4821 0.286358 39.0738 0.301206 38.7274 0.331963C38.7274 0.331963 38.715 0.333024 38.715 0.334085L46.3738 6.89593L50.1847 3.6272C47.7349 1.82103 44.8396 0.86968 42.3279 0.491051C41.635 0.386053 40.9669 0.3256 40.3606 0.301207C40.2121 0.295904 40.0636 0.291661 39.9152 0.290601ZM33.5926 3.75766L4.38621 28.8034L9.79938 33.4382L10.4057 32.9185L11.1975 32.2503L18.3738 38.4017L16.9757 39.6002L22.3951 44.2455L51.62 19.2051L33.5926 3.75766ZM40.7813 4.80021L39.3707 6.00822L48.9845 14.2522L50.3951 13.0431L40.7813 4.80021ZM51.7685 4.98051L47.9576 8.24924L55.6164 14.8249V14.8037C55.7154 13.9976 55.6783 12.9052 55.4308 11.7174C54.9854 9.56436 53.8719 7.07941 51.7685 4.98051ZM51.9788 14.4006L50.5683 15.6097L54.5895 19.0566L56 17.8475L51.9788 14.4006ZM23.8056 15.5991L28 19.1945L32.1944 15.5991L37.7994 20.4036L33.6049 23.9989L37.7994 27.5943L32.1944 32.3988L28 28.8034L23.8056 32.3988L18.2006 27.5943L22.3951 23.9989L18.2006 20.4036L23.8056 15.5991ZM1.39072 28.9413L0 30.1503L6.82245 35.9942L8.22183 34.7957L1.39072 28.9413ZM0.390985 33.1836C0.390985 33.1942 0.389748 33.1942 0.389748 33.1942C0.293239 34.0003 0.330358 35.0927 0.575342 36.2805C1.06779 38.6774 2.38798 41.488 4.99001 43.7152C7.59205 45.9531 10.8758 47.0879 13.6721 47.5121C15.0579 47.7243 16.3323 47.7561 17.2726 47.6712H17.2974L12.4225 43.4925L11.1975 44.5425L4.02616 38.4017L5.25108 37.3517L0.390985 33.1836ZM11.1975 34.9442L7.17631 38.4017L11.1975 41.8486L15.2311 38.4017L11.1975 34.9442ZM15.4043 40.9471L13.9938 42.1456L20.8237 48L22.2342 46.8015L15.4043 40.9471Z" fill="white"/>
</svg>
