<svg width="56" height="56" viewBox="0 0 56 56" fill="none" xmlns="http://www.w3.org/2000/svg">
<path d="M26.3465 0L25.8326 1.85899C13.2655 0.905003 3.58567 16.6811 0 29.6538L1.40521 36.5339C8.07619 17.2523 17.8289 6.82746 26.4358 6.93237L43.2579 11.3018L45.0399 4.85554L26.3465 0.000239611V0ZM46.6939 7.51834L46.0964 9.67995L49.0919 10.4581C48.94 10.6545 48.8016 10.8624 48.6777 11.0779C48.0089 12.2393 47.6461 13.7167 47.6461 15.3352C47.6461 16.9535 48.0089 18.4309 48.6777 19.5923C49.3464 20.7538 50.4296 21.7034 51.8232 21.7034C53.2165 21.7034 54.2994 20.7538 54.9681 19.5925C55.637 18.4308 56 16.9536 56 15.3351C56 13.717 55.637 12.2396 54.9684 11.0782C54.4563 10.189 53.7008 9.42559 52.75 9.11578L52.7562 9.09302L46.6942 7.51798L46.6939 7.51834ZM26.5708 9.19697C24.4946 9.82749 22.453 10.8867 20.5384 12.3146L25.9107 13.71C26.9067 12.215 27.9414 10.9117 28.9966 9.82701L26.5708 9.19697ZM31.5914 10.5009C30.5309 11.4541 29.426 12.7521 28.3281 14.3379L36.5434 16.4717C36.4106 14.5664 36.1233 12.9066 35.6965 11.5673L31.5914 10.5009ZM51.823 11.2047C52.0985 11.2047 52.5269 11.4302 52.9522 12.1687C53.3772 12.9072 53.6911 14.0542 53.6911 15.3351C53.6911 16.6158 53.3772 17.7631 52.9522 18.5015C52.5269 19.2399 52.0985 19.4655 51.823 19.4655C51.5475 19.4655 51.1188 19.2399 50.6938 18.5015C50.2686 17.7631 49.955 16.6158 49.955 15.3351C49.955 14.0541 50.2686 12.9068 50.6938 12.1684C51.1188 11.43 51.5475 11.2047 51.823 11.2047ZM38.2913 12.2412C38.6459 13.6918 38.8693 15.3219 38.9607 17.0995L44.9561 18.6568C44.0345 16.4923 42.8131 14.5854 41.3404 13.033L38.2913 12.2412ZM18.4313 14.0845C16.2006 16.181 14.2172 18.8053 12.6539 21.8435L20.8117 23.9626C21.965 20.8977 23.2681 18.112 24.6695 15.7048L18.4311 14.0845H18.4313ZM27.0501 16.3232C25.6412 18.663 24.279 21.4476 23.0764 24.5509L35.8236 27.8613C36.383 24.591 36.6396 21.5192 36.6264 18.8101L27.0501 16.3231V16.3232ZM39.0066 19.4285C38.9785 22.1925 38.6702 25.2367 38.088 28.4498L46.8691 30.7305C47.0826 27.3416 46.7187 24.1074 45.8684 21.2107L39.0066 19.4288V19.4285ZM11.6845 23.909C11.1316 25.2071 10.6529 26.5688 10.261 27.9865C9.919 29.2236 9.65647 30.4556 9.46831 31.6746L17.8744 33.8578C18.1425 32.6554 18.4456 31.4355 18.7868 30.2013C19.1776 28.7873 19.6019 27.4131 20.0536 26.0826L11.6846 23.909H11.6845ZM22.3008 26.6661C21.8396 27.9927 21.4081 29.3658 21.0171 30.7804C20.6759 32.0148 20.3768 33.237 20.1165 34.4402L33.2856 37.8604C33.6807 36.6926 34.0521 35.4892 34.3933 34.2548C34.7843 32.8401 35.1194 31.4419 35.4043 30.0696L22.3004 26.6661H22.3008ZM37.651 30.6532C37.3557 32.0244 37.0147 33.42 36.6237 34.8339C36.2827 36.068 35.9158 37.2718 35.5278 38.443L44.5572 40.7881C45.023 39.6412 45.4309 38.4472 45.7729 37.2101C46.1649 35.7922 46.4524 34.3811 46.643 32.9887L37.651 30.6532ZM9.2038 33.9226C8.9567 36.9773 9.17946 39.9144 9.80423 42.6038L16.4378 44.3265C16.5393 41.7565 16.8661 38.9742 17.4191 36.0564L9.20355 33.9226H9.2038ZM19.6805 36.6438C19.1485 39.601 18.8609 42.4068 18.7968 44.939L29.0131 47.5926C30.2637 45.3685 31.4618 42.7992 32.5264 39.9804L19.6806 36.6439L19.6805 36.6438ZM34.7877 40.5674C33.7616 43.3623 32.6096 45.9305 31.3721 48.2055L38.6292 50.0901C40.5571 48.0638 42.2652 45.6282 43.6266 42.8632L34.7878 40.5674H34.7877ZM10.5249 45.1079C11.4853 47.8674 12.904 50.2774 14.6937 52.1637L17.1196 52.7939C16.681 50.9961 16.4438 48.9221 16.408 46.636L10.5249 45.1079ZM18.8022 47.2579C18.88 49.7153 19.1933 51.8307 19.7148 53.468L23.8186 54.5338C25.1149 53.3686 26.4774 51.6886 27.8124 49.598L18.8022 47.2577V47.2579ZM30.2067 50.2198C28.9965 52.1824 27.7212 53.8638 26.4141 55.208L29.4632 56C31.9864 55.2338 34.4582 53.8346 36.7133 51.9101L30.2066 50.2199L30.2067 50.2198Z" fill="white"/>
</svg>
