<svg width="56" height="56" viewBox="0 0 56 56" fill="none" xmlns="http://www.w3.org/2000/svg">
<path d="M29.7703 0C28.1706 0.337946 25.5244 2.32923 26.4734 5.9983C27.5835 10.2893 17.4223 10.2358 21.484 3.1831C18.8914 5.01653 16.9168 4.56718 16.2732 0.830588C13.6085 4.09584 13.5751 9.42351 15.0876 12.7568C17.0975 17.1861 11.5755 17.9757 9.1265 13.8064C11.7968 27.3888 3.50971 26.353 5.49743 22.1687C7.56533 17.8161 8.82268 13.1338 0.449331 11.1421C5.04116 13.5796 4.39984 23.4582 0.560792 19.4235C-1.79547 23.6821 4.02483 24.9143 4.19466 28.031C4.33189 30.5525 1.94087 30.5134 0.12981 28.9049C0.296402 32.8402 3.31495 33.2273 4.81045 35.3217C8.08308 39.9047 3.09335 43.3545 0.099368 40.7235C0.619159 45.261 3.23274 48.2188 6.64032 50.5778C7.96275 33.8071 12.6378 22.2122 18.2838 15.7002C21.32 12.1981 24.668 10.1415 27.9893 9.70038C28.4043 9.64538 28.8178 9.61706 29.2285 9.61542C31.7517 9.60524 34.1622 10.5967 36.1314 12.4875C40.489 11.7778 41.6344 7.25916 37.7479 4.24246C37.9669 11.7718 29.6991 6.81169 29.7703 0ZM42.2491 0.46725C41.4901 0.480122 40.6251 0.746921 39.6785 1.34219C43.9416 2.52804 44.119 6.59252 41.4493 10.844C47.3552 7.74221 46.3474 0.398444 42.249 0.46725H42.2491ZM9.60986 0.832344C5.21638 0.772314 3.37128 7.45634 8.00434 10.2729C6.67209 6.58889 8.69912 3.02911 11.3364 1.17953C10.7272 0.94901 10.1493 0.840184 9.60974 0.832695L9.60986 0.832344ZM29.2497 11.7964C28.9342 11.8004 28.6145 11.8241 28.2909 11.8672C25.7022 12.2112 22.7826 13.8958 19.9933 17.1128C14.6161 23.315 9.85196 35.1399 8.75473 52.5957C9.78544 52.2536 10.7738 52.2674 11.6263 52.56C12.2691 52.7806 12.8289 53.1007 13.3486 53.4521C13.9558 45.0157 14.9364 36.6207 17.0151 28.4085L17.0717 28.4222L16.2556 45.7337L16.2855 45.7349C15.9521 48.7992 15.6966 51.883 15.4879 54.9802C16.3649 55.5407 17.2431 55.9301 18.3416 55.947C19.5257 55.9652 21.0879 55.5295 23.2382 54.0829C21.2111 43.2057 20.6499 32.5576 23.714 22.6217C23.6936 22.2326 23.7245 21.8376 23.8156 21.4449C24.0581 20.4003 24.7712 19.402 25.9022 18.7645L25.9026 18.7643L32.1983 15.2198L34.3374 13.8379C32.804 12.431 31.099 11.7722 29.2497 11.7963V11.7964ZM37.4439 15.0623C37.082 15.0826 36.8526 15.1244 36.611 15.2601H36.6101L27.0216 20.6588C26.375 21.0234 26.1131 21.4408 26.0001 21.9281C25.8869 22.4156 25.9672 23.0037 26.2271 23.5485C26.7469 24.6383 27.8051 25.3662 28.9022 25.0791L29.732 24.8624L36.6753 36.5985L36.6796 36.6059C37.7044 38.4007 37.9465 39.9965 37.7139 41.3643C37.4819 42.732 36.8549 43.817 36.3552 44.8315C35.8554 45.8461 35.4647 46.7748 35.4321 47.9145C35.3998 49.0535 35.7169 50.4678 36.8809 52.4458L36.8821 52.4482L39.0046 56H56V36.3409C54.5298 35.6119 53.0558 35.6747 51.304 35.4876C49.3489 35.2789 47.0841 34.5099 45.382 31.7579L45.3772 31.7502L39.4762 21.8376L33.087 25.4394L31.9669 23.5454L38.3506 19.9469L38.3386 19.9267L39.2015 19.3539C39.6698 19.0433 39.8672 18.6967 39.9518 18.2617C40.0362 17.827 39.9657 17.292 39.7432 16.7826C39.2988 15.7637 38.3248 15.0149 37.4445 15.0625H37.4439V15.0623Z" fill="white"/>
</svg>
