<svg width="60" height="56" viewBox="0 0 60 56" fill="none" xmlns="http://www.w3.org/2000/svg">
<path d="M18.117 0.000433902C9.85832 0.0375504 2.91931 2.3572 0 3.13038C22.9743 1.02498 26.4001 6.91268 25.7635 13.3697C23.4448 18.2138 22.5497 20.4474 22.2107 22.4018C22.1979 22.3906 22.186 22.3794 22.1729 22.3681C22.1554 22.5642 22.1408 22.7608 22.1279 22.9574C21.9785 24.1517 22.0114 25.3245 22.0205 27.0342C22.0501 32.5316 24.6106 37.0947 26.5462 42.8865C24.0761 47.3638 18.541 48.0581 12.403 48.0082C14.3984 48.5506 19.7063 52.5075 35.8096 45.6704C33.4693 50.5582 22.8385 54.1547 22.5302 56C34.7096 54.9531 42.4881 49.5669 44.4749 41.4478C47.895 39.3161 50.9676 36.6265 53.5382 30.1221C54.1716 28.1895 56.8933 28.0087 58.9905 27.515C60.0203 27.2729 60.6198 25.2266 58.9905 24.9983C56.8454 24.5192 53.7618 24.7733 52.5553 22.5712C43.23 4.1882 29.4345 -0.0494814 18.117 0.000433902ZM6.08931 15.126C5.28122 15.1209 4.62419 15.2525 4.18107 15.5479C10.9237 19.304 13.4426 20.929 13.497 22.2115C13.536 24.5762 6.36966 25.2179 6.16821 26.4814C6.0916 26.9613 11.9231 30.161 12.7821 31.3804C13.8224 33.2614 10.4578 35.9735 6.07875 38.931C6.99247 40.3743 15.3075 37.1906 20.9285 34.2204C19.9913 29.7737 19.392 25.2444 20.0597 20.7116C15.9375 17.7389 9.59197 15.1479 6.08931 15.1258V15.126ZM45.5146 19.4911C47.7009 19.4911 49.4978 21.2983 49.4978 23.4971C49.4978 25.6959 47.7009 27.5031 45.5146 27.5031C43.3283 27.5031 41.5317 25.6959 41.5317 23.4971C41.5317 21.2983 43.3285 19.4911 45.5146 19.4911ZM36.4057 21.0826C36.916 21.0905 37.4283 21.1197 37.9425 21.1728L38.0044 21.1792L38.0653 21.1923C39.0205 21.3981 39.4089 22.1353 39.6821 22.7998C39.9553 23.4641 40.1122 24.2261 40.1919 25.0422C40.351 26.674 40.247 28.4832 39.4321 29.9031C38.9464 30.7495 38.2248 31.0442 37.3375 31.3832C36.4505 31.7224 35.3633 31.9831 34.1497 32.1297C31.7218 32.4228 28.7879 32.2662 26.1812 31.0608L23.6488 29.8901L26.2678 28.9318C27.5353 28.4683 28.4626 27.9259 29.1298 27.4479C28.0536 26.9969 26.7208 26.2569 25.5096 25.0315L24.1988 23.7056L25.9659 23.1245C29.3548 22.0101 32.8333 21.0268 36.4056 21.0829L36.4057 21.0826ZM45.5146 21.7949C44.5665 21.7949 43.8223 22.5436 43.8223 23.4971C43.8223 24.2369 44.2709 24.8515 44.9144 25.0905C44.7649 24.841 44.686 24.5589 44.6851 24.2718C44.6851 23.8303 44.8698 23.4068 45.1985 23.0946C45.5272 22.7823 45.973 22.6069 46.4378 22.6069C46.635 22.6076 46.8306 22.6399 47.0164 22.7024C46.7364 22.1591 46.1756 21.795 45.5147 21.795L45.5146 21.7949ZM36.3694 23.3874C33.887 23.3528 31.3414 23.9109 28.7436 24.6798C30.2361 25.601 31.5509 25.8138 31.5509 25.8138L33.4261 26.1018L32.2992 27.6363C32.2992 27.6363 31.8479 28.2361 31.0019 28.9188C30.6761 29.1814 30.262 29.4679 29.7997 29.7571C31.1876 29.9888 32.6159 29.9945 33.8762 29.8422C34.9268 29.7155 35.8604 29.4833 36.5244 29.2297C37.1882 28.976 37.548 28.5782 37.4483 28.7515C37.8138 28.1148 38.0379 26.5568 37.9122 25.2668C37.8493 24.622 37.7111 24.0346 37.5655 23.6806C37.5044 23.5322 37.4557 23.4835 37.4274 23.4486C37.0757 23.4191 36.7237 23.3925 36.3695 23.3877L36.3694 23.3874Z" fill="white"/>
</svg>
