<svg width="53" height="53" viewBox="0 0 53 53" fill="none" xmlns="http://www.w3.org/2000/svg">
<path d="M34.9118 0C24.9635 0 16.9216 8.04199 16.9216 17.9902C16.9216 27.9385 24.9635 35.9805 34.9118 35.9805C37.4376 35.9805 39.8323 35.4682 42.0126 34.527C46.0514 31.6318 48.744 26.7709 49.03 21.5406C49.4946 13.1055 43.5137 5.3101 35.5909 4.82639C28.5497 4.41416 22.0565 10.2223 21.7229 17.8949C21.4132 24.6145 26.2145 30.8098 32.529 31.0838C37.9975 31.3221 43.0014 26.7709 43.1563 20.8258C43.2755 15.8338 39.6536 11.235 34.9356 11.1635C31.0993 11.1158 27.5608 14.3803 27.5846 18.5979C27.6085 21.8623 30.0628 24.8885 33.1604 24.7693C35.4122 24.6621 37.4733 22.6605 37.2708 20.2182C37.1993 19.4199 36.8419 18.6217 36.3057 18.0855C35.7696 17.5732 35.162 17.3111 34.4471 17.4541C34.1493 17.5256 33.6966 17.8234 33.494 18.1094C33.22 18.5264 34.9714 19.1697 34.9356 19.6582C34.888 20.1705 34.5782 20.7186 34.1255 20.9926C33.6608 21.2309 33.2319 21.1594 32.9102 21.0641C32.2788 20.8734 31.838 20.5756 31.4925 19.825C31.0278 18.7408 31.2899 17.5494 31.8618 16.7512C32.3979 15.9768 33.1842 15.4764 34.054 15.2738C35.4479 14.9879 36.7823 15.5479 37.6997 16.4414C38.6171 17.3588 39.2247 18.6455 39.3438 19.9918C39.6536 23.84 36.5798 26.8424 33.2557 26.9615C28.8952 27.1641 25.5712 23.0656 25.5235 18.5979C25.4759 13.0578 30.0151 8.86406 34.9594 8.93555C40.9165 9.00703 45.3843 14.702 45.2294 20.8973C45.0268 28.1291 38.9983 33.5738 32.4694 33.3117C24.9397 32.99 19.2925 25.7105 19.6618 17.7996C20.0192 9.37637 26.6434 2.96303 34.1969 2.59965C34.6854 2.57582 35.2096 2.57582 35.7219 2.59965C44.8243 3.15604 51.6272 12.0332 51.0911 21.6955C50.96 24.1498 50.3643 26.5207 49.3755 28.6891C51.5915 25.6986 52.902 22.0053 52.902 17.9902C52.902 8.04199 44.86 0 34.9118 0ZM18.9231 30.2141L1.28196 49.3242L1.26648 49.348C0.43964 50.1701 0.10009 50.9207 0.0214573 51.4807C-0.0571756 52.0287 0.089367 52.3742 0.313351 52.5887C0.537336 52.815 0.878078 52.9699 1.4297 52.8865C1.97894 52.8031 2.73429 52.4695 3.55993 51.6475L21.3655 32.8828C20.4719 32.0607 19.6618 31.1791 18.9231 30.2141Z" fill="white"/>
</svg>
