<svg width="57" height="57" viewBox="0 0 57 57" fill="none" xmlns="http://www.w3.org/2000/svg">
<path d="M29.6353 0L28.4438 1.96485L31.8039 3.80977L32.9964 1.84529L29.6354 0H29.6353ZM36.7397 0.214837L33.8006 5.05534C34.91 5.43367 36.0095 5.9159 37.0811 6.50409C38.2556 7.14897 39.331 7.88512 40.2977 8.69179L43.2683 3.79909L36.7397 0.214837ZM27.62 6.28574C27.0079 6.28816 26.409 6.32822 25.8289 6.40517C22.7342 6.81591 20.2077 8.23759 18.8115 10.5372L15.1261 16.6072L17.2638 17.781L20.1909 12.9089L22.2606 14.0348L19.3289 18.9145L25.5602 22.3359L28.4654 17.5002L30.5349 18.626L27.6251 23.4696L34.8954 27.4612L37.7758 22.6661L39.8458 23.7918L36.9603 28.5949L38.8585 29.637L42.5444 23.566C43.9406 21.2664 43.9719 18.4755 42.7988 15.7219C41.6258 12.9683 39.2324 10.3043 35.8895 8.46894C33.3822 7.09253 30.7173 6.38854 28.236 6.2963C28.0293 6.28853 27.8239 6.28501 27.6198 6.28574H27.62ZM43.6545 7.69723L42.462 9.66159L49.3054 13.419C48.7008 13.8565 48.1831 14.4398 47.7739 15.0977C46.8956 16.51 46.4051 18.3389 46.4051 20.3431C46.4051 22.3473 46.8956 24.1764 47.7739 25.5886C48.6522 27.0007 50.0247 28.0787 51.7029 28.0787C53.3808 28.0787 54.7534 27.0009 55.6317 25.5886C56.5099 24.1764 57 22.3473 57 20.3431C57 18.3389 56.5099 16.51 55.6317 15.0978C54.999 14.0807 54.1093 13.2398 53.0345 12.8472L43.6545 7.69723ZM51.7029 14.8763C51.8114 14.8763 51.9228 14.89 52.0364 14.9182L52.6951 15.2799L52.7104 15.2549C53.0049 15.4774 53.2998 15.8035 53.5797 16.2532C54.1873 17.23 54.6159 18.7016 54.6159 20.3431C54.6159 21.9845 54.1873 23.4564 53.5797 24.4335C52.9721 25.4103 52.2922 25.8103 51.7028 25.8103C51.1134 25.8103 50.4331 25.4102 49.8255 24.4333C49.2179 23.4562 48.7893 21.9844 48.7893 20.3429C48.7893 18.7015 49.2179 17.2299 49.8256 16.2529C50.4333 15.2759 51.1134 14.8759 51.7028 14.8759L51.7029 14.8763ZM16.2854 19.8624L8.32397 32.9756L27.2842 43.3854L35.2457 30.2723L16.2857 19.8624H16.2854ZM4.77978 33.6488L1.09374 39.7196C-0.302603 42.0194 -0.333729 44.8105 0.839119 47.5641C2.01184 50.317 4.40436 52.98 7.74597 54.8152C7.74673 54.8157 7.74762 54.8164 7.74852 54.8168H7.74877C11.0918 56.652 14.7148 57.2914 17.8093 56.8805C20.9041 56.4698 23.4304 55.0482 24.8268 52.7485L28.5122 46.6784L26.3952 45.5161L23.097 51.0066L21.0269 49.8806L24.3303 44.3822L17.0599 40.3908L13.7863 45.8399L11.7164 44.7141L14.9948 39.257L8.76357 35.8357L5.51138 41.2489L3.44174 40.1231L6.69852 34.7021L4.77953 33.6485L4.77978 33.6488Z" fill="white"/>
</svg>
