<svg width="56" height="42" viewBox="0 0 56 42" fill="none" xmlns="http://www.w3.org/2000/svg">
<path d="M28 0C20.0848 0 12.9212 1.17534 7.83515 3.02356C5.29091 3.94712 3.27273 5.0356 1.94424 6.17906C0.61697 7.31152 0 8.44398 0 9.56544C0 10.6869 0.61697 11.8194 1.94424 12.9518C3.27273 14.0953 5.29091 15.1838 7.83515 16.1073C12.9212 17.9545 20.0848 19.1309 28 19.1309C35.9152 19.1309 43.0788 17.9545 48.1697 16.1073C50.703 15.1838 52.7273 14.0953 54.0606 12.9518C55.3818 11.8194 56 10.6869 56 9.56544C56 8.44398 55.3818 7.31152 54.0606 6.17906C52.7273 5.0356 50.703 3.94712 48.1697 3.02356C43.0788 1.17534 35.9152 0 28 0ZM28.0121 1.48759C34.2303 1.48759 39.8667 2.20995 44.0242 3.41937C46.1091 4.02408 47.8303 4.73874 49.103 5.61832C50.3879 6.48691 51.2849 7.59738 51.2849 8.90576C51.2849 10.2141 50.3879 11.3246 49.103 12.1932C47.8303 13.0728 46.1091 13.7874 44.0242 14.3921C39.8667 15.6016 34.2303 16.3272 28.0121 16.3272C21.7939 16.3272 16.1576 15.6016 12 14.3921C9.91515 13.7874 8.1903 13.0728 6.91515 12.1932C5.64121 11.3246 4.73939 10.2141 4.73939 8.90576C4.73939 7.59738 5.64121 6.48691 6.91515 5.61832C8.1903 4.73874 9.91515 4.02408 12 3.41937C16.1576 2.20995 21.7939 1.48759 28.0121 1.48759ZM28.0121 3.46335C21.9758 3.46335 16.5212 4.189 12.6545 5.29948C10.7273 5.86021 9.2 6.53089 8.23152 7.19058C7.26061 7.86126 6.92121 8.43298 6.92121 8.90576C6.92121 9.37853 7.26061 9.95026 8.23152 10.6209C9.2 11.2806 10.7273 11.9513 12.6545 12.512C16.5212 13.6225 21.9758 14.3482 28.0121 14.3482C34.0485 14.3482 39.503 13.6225 43.3697 12.512C45.297 11.9513 46.8242 11.2806 47.7939 10.6209C48.7636 9.95026 49.103 9.37853 49.103 8.90576C49.103 8.43298 48.7636 7.86126 47.7939 7.19058C46.8242 6.53089 45.297 5.86021 43.3697 5.29948C39.503 4.189 34.0485 3.46335 28.0121 3.46335ZM0 13.9853V32.4346C0 33.8859 0.712727 35.1393 2.14545 36.3267C3.57697 37.5141 5.72848 38.5696 8.36606 39.4162C13.6364 41.1204 20.8242 42 28 42C35.1758 42 42.3636 41.1204 47.6364 39.4162C50.2667 38.5696 52.4242 37.5141 53.8545 36.3267C55.2848 35.1393 56 33.8859 56 32.4346V13.9853C55.8545 14.1283 55.7091 14.2602 55.5515 14.3921C53.9394 15.7775 51.697 16.9649 48.9697 17.9435C43.5394 19.9225 36.1455 21.1099 28 21.1099C19.8545 21.1099 12.4606 19.9225 7.02424 17.9435C4.30303 16.9649 2.06182 15.7775 0.446061 14.3921C0.290909 14.2602 0.14303 14.1283 0 13.9853ZM8.60606 23.6387L16.4121 28.9382C20.4485 27.256 25.1152 25.189 32.8606 25.189C37.7091 25.189 47.4061 28.0366 47.4061 30.2466C47.4061 32.4346 37.7091 35.2932 32.8606 35.2932C25.1152 35.2932 20.4485 33.2152 16.4121 31.533L8.60606 36.8325V23.6387Z" fill="white"/>
</svg>
