<svg width="59" height="58" viewBox="0 0 59 58" fill="none" xmlns="http://www.w3.org/2000/svg">
<path d="M33.4945 0C24.4203 6.81329 13.1474 10.9386 3.23317 16.7212C2.47444 17.166 2.24441 17.5981 2.14401 18.2844C2.0436 18.9707 2.19103 19.9493 2.51384 21.0296C2.69176 21.6142 2.91925 22.2369 3.162 22.8724C3.93216 21.4108 5.0963 20.0128 6.48794 18.6911C9.42371 15.8824 13.5287 13.2644 17.8244 10.9132C26.441 6.21469 35.9728 2.60915 38.8323 1.45899C36.9132 1.07899 35.0323 0.635449 33.4945 0ZM45.4537 2.31685C43.5982 2.31685 41.8189 2.72354 39.7473 3.55979C36.8243 4.73537 27.3688 8.30913 18.9173 12.9212C14.6979 15.2216 10.7454 17.7761 8.06766 20.3433C5.38098 22.9105 4.09738 25.3252 4.53457 27.4349C5.05182 29.9258 7.47542 31.7687 11.2665 33.1158C15.0792 34.463 20.0865 35.2255 25.0431 35.6957C30.0123 36.1533 34.9434 36.3312 38.7179 36.5727C40.6116 36.6997 42.2129 36.8395 43.433 37.0556C44.043 37.17 44.5641 37.2971 45.047 37.4877C45.5045 37.6783 46.0637 37.9706 46.2671 38.7205C46.6737 40.2074 46.0891 41.7198 45.047 42.8636C43.9794 44.0201 42.4671 44.986 40.637 45.901C36.9895 47.7438 31.9949 49.3198 26.8986 50.7305C21.7768 52.1284 16.5535 53.3358 12.4993 54.3652C10.4786 54.8863 8.74886 55.3438 7.49703 55.7632C6.99248 55.9284 6.63536 56.0682 6.31128 56.208C7.29496 56.4749 9.06532 56.6656 11.2919 56.691C15.9053 56.7545 22.5267 56.208 29.2879 54.9753C36.0363 53.7425 42.9119 51.8234 48.0971 49.2435C53.2697 46.6636 56.5486 43.5118 56.7647 39.9532C57.0061 36.471 55.2269 34.3232 52.0496 32.5947C48.8724 30.879 44.3099 29.8369 39.7092 29.176C35.0831 28.5152 30.3808 28.2101 26.7715 27.8034C24.9414 27.5874 23.4163 27.3713 22.2471 27.0282C21.637 26.8503 21.1287 26.6596 20.6712 26.3292C20.2263 26.0115 19.7688 25.4523 19.718 24.7533C19.6672 23.7366 20.2263 22.8851 20.9126 22.1861C21.5862 21.4744 22.4758 20.8516 23.5307 20.2416C25.6277 19.0342 28.3601 17.9159 31.0798 16.9246C36.5066 14.9547 41.946 13.5694 41.946 13.5694L42.1366 13.5185L42.3146 13.5313C46.0129 13.7981 50.4864 13.0483 53.7145 11.5359C55.3413 10.7861 56.6249 9.84565 57.4001 8.83783C57.8958 8.19602 58.1627 7.5466 58.2389 6.83489C53.562 8.43114 52.0624 9.15555 48.2878 9.31187L48.1734 7.02044C51.3379 6.8959 52.5072 6.40025 56.053 5.16874C52.7359 3.77457 50.1433 2.87986 47.8811 2.51892C47.1694 2.40327 46.4831 2.33718 45.8222 2.32066H45.4537V2.31685ZM44.0557 4.49135C44.595 4.49135 45.1122 4.70559 45.4936 5.08694C45.8749 5.46828 46.0891 5.98549 46.0891 6.52479C46.0891 7.06409 45.8749 7.58131 45.4936 7.96265C45.1122 8.34399 44.595 8.55823 44.0557 8.55823C43.5164 8.55823 42.9992 8.34399 42.6178 7.96265C42.2365 7.58131 42.0223 7.06409 42.0223 6.52479C42.0223 5.98549 42.2365 5.46828 42.6178 5.08694C42.9992 4.70559 43.5164 4.49135 44.0557 4.49135ZM23.8738 22.7199C23.3273 23.0884 22.8444 23.457 22.5267 23.7747C22.1962 24.1178 22.0946 24.3466 22.0692 24.4991C22.1962 24.5754 22.4631 24.7025 22.8825 24.8295C23.7976 25.0964 25.2591 25.3252 27.0257 25.5285C30.5333 25.9225 35.2738 26.2402 40.0269 26.9138C44.7547 27.6001 49.5078 28.6168 53.1299 30.5867C55.2269 31.7178 56.9426 33.2302 58.0102 35.1492C58.1118 33.8275 58.0229 32.1753 57.5399 29.9131C48.1861 25.6938 34.5748 24.9312 23.8738 22.7199ZM43.9286 40.5124C32.9226 43.7659 23.7849 48.2776 9.53809 49.9298C3.84701 50.6034 2.402 53.4883 0 56.3224C0.329163 56.7291 0.885816 57.0977 1.75257 57.39C2.524 57.6696 3.48735 57.8602 4.55617 58C4.28293 57.8475 4.03256 57.6569 3.80634 57.39C3.56614 57.0977 3.38567 56.6529 3.40219 56.2207C3.41872 55.7886 3.59918 55.4201 3.8127 55.1278C4.18761 54.6321 4.57905 54.4669 5.0569 54.2381C5.53603 54.0221 6.10921 53.806 6.7866 53.5773C8.1401 53.1452 9.90665 52.6622 11.9401 52.1539C16.0324 51.1117 21.2431 49.9044 26.2885 48.5191C31.334 47.1338 36.227 45.5579 39.6203 43.8549C41.3106 43.0161 42.6069 42.1265 43.344 41.3258C43.6236 41.0208 43.8142 40.7539 43.9286 40.5124Z" fill="white"/>
</svg>
