<svg width="56" height="56" viewBox="0 0 56 56" fill="none" xmlns="http://www.w3.org/2000/svg">
<path d="M27.8566 0C25.8592 0 24.0368 0.480054 22.6368 1.33251C21.2371 2.1852 20.1899 3.50345 20.1899 5.0925C20.1899 6.68143 21.2371 7.9998 22.6369 8.85237C24.037 9.70494 25.8593 10.1849 27.8568 10.1849C29.2043 10.1849 30.4715 9.96564 31.5838 9.56175L29.3581 11.804L43.8703 26.4244L46.3725 23.9035L31.9826 9.40681C32.3697 9.2452 32.7359 9.06019 33.0766 8.8526C33.8544 8.37873 34.5226 7.7606 34.9634 7.03256L37.1977 9.2837L36.0303 10.4601L48.7441 23.2683L50.6623 17.4708L39.8668 6.59469L38.6991 7.77129L35.4779 4.52618C35.2636 3.19058 34.3063 2.08194 33.0764 1.33263C31.6764 0.480054 29.8541 0 27.8566 0ZM40.1629 1.51621L38.9955 2.69258L53.0914 16.8928L50.1482 25.7876L33.3096 45.3611L34.4804 46.5408L53.6068 24.7033L56 17.4704L40.1629 1.51621ZM27.8566 2.13886C29.5072 2.13886 30.9872 2.5595 31.978 3.16313C32.9688 3.76641 33.4002 4.45951 33.4002 5.0925C33.4002 5.72548 32.9685 6.41859 31.978 7.02198C30.9872 7.62538 29.5072 8.04626 27.8566 8.04626C26.2061 8.04626 24.7259 7.62538 23.7354 7.02198C22.7446 6.41859 22.3129 5.7256 22.3129 5.0925C22.3129 4.45951 22.7446 3.76641 23.7354 3.16301C24.7259 2.55938 26.2061 2.13886 27.8566 2.13886ZM27.8566 13.3165L4.00298 37.3468L18.5155 51.9671L42.3688 27.9367L27.8566 13.3165ZM2.50172 38.8592L0 41.3802L14.5117 56L17.014 53.4792L2.50183 38.8594L2.50172 38.8592Z" fill="white"/>
</svg>
