<svg width="56" height="56" viewBox="0 0 56 56" fill="none" xmlns="http://www.w3.org/2000/svg">
<path d="M10.8084 0.000896587C7.94327 -0.0571671 5.49387 2.71166 6.46903 6.35768C1.5269 5.03109 -2.27842 10.4716 1.58725 14.1051C4.85435 17.1756 10.6455 15.5695 14.2308 15.7359L18.4945 20.0079L16.0039 22.503C15.3104 22.2022 14.579 22.057 13.8538 22.0567C13.7219 22.0567 13.5904 22.0613 13.4591 22.0708C11.7097 22.1967 10.0473 23.1588 9.10953 24.7863C7.60883 27.3896 8.50844 30.7522 11.107 32.2554L12.2257 30.3136C10.6748 29.4163 10.1516 27.4611 11.0475 25.9073C11.9101 24.4105 13.751 23.8702 15.2712 24.633L15.3658 24.7278L35.1444 44.5444C37.7786 47.1837 41.3433 46.9717 43.7074 45.2694L54.4176 56L56 54.4149L45.2782 43.6725C45.9339 42.7358 46.3534 41.625 46.4075 40.4267C46.4833 38.7487 45.8055 36.9468 44.2661 35.4045L24.3459 15.4457L24.4077 15.41C23.512 13.8559 24.0347 11.9006 25.5859 11.0036C27.1374 10.1063 29.0883 10.6299 29.984 12.1841L31.9219 11.063C30.9844 9.43577 29.3218 8.47376 27.5724 8.34816C27.4413 8.33856 27.3096 8.33376 27.1776 8.334C26.2542 8.33436 25.3199 8.56854 24.4672 9.06172C21.9771 10.5019 21.0491 13.6485 22.2951 16.1995L20.0766 18.4225L15.8874 14.2253C15.7629 10.623 17.3222 4.43869 14.1825 1.48452C13.1141 0.479443 11.9293 0.0238101 10.808 0.00101649L10.8084 0.000896587ZM23.6972 17.9661L42.5421 36.8481L36.5846 42.8169L17.7388 23.9354L23.6972 17.9661ZM23.7974 21.13L22.2151 22.7152L37.842 38.3717L39.4243 36.7863L23.7973 21.1301L23.7974 21.13Z" fill="white"/>
</svg>
